<svg id="Layer_1" data-name="Layer 1" xmlns="http://www.w3.org/2000/svg" viewBox="0 0 255.12 121.89"><defs><style>.cls-1,.cls-14,.cls-20{fill:#fff;}.cls-2{fill:#fcca2d;}.cls-3{fill:none;stroke:#232121;stroke-linecap:round;stroke-linejoin:round;stroke-width:0.67px;}.cls-4,.cls-5{fill:#dbe3fb;}.cls-5{stroke:#353535;stroke-miterlimit:10;}.cls-6{font-size:12px;font-family:AdobeArabic-Regular, Adobe Arabic;}.cls-7{font-size:8.5px;}.cls-22,.cls-7{font-family:ArialMT, Arial;}.cls-8{fill:#fd8a02;}.cls-9{fill:#ffcf00;}.cls-10{opacity:0.18;}.cls-11,.cls-16{fill:#000e3f;}.cls-12{fill:#ff8ede;}.cls-13,.cls-15{fill:#fc09b2;}.cls-13,.cls-14{opacity:0.5;}.cls-16,.cls-21{opacity:0.25;}.cls-17{fill:#4217a6;}.cls-18{fill:#915efd;}.cls-19{fill:#00d5fe;}.cls-20{opacity:0.75;}.cls-22{font-size:11.53px;}.cls-23{fill:#ff3842;}.cls-23,.cls-24,.cls-25{fill-rule:evenodd;}.cls-24{fill:#ffe800;}.cls-25{fill:#423a47;}</style></defs><rect class="cls-1" x="69.66" y="8.49" width="124.74" height="102.3" rx="3.41"/><path class="cls-2" d="M191,8.49H73.07a3.41,3.41,0,0,0-3.41,3.41v4.87H194.41V11.9A3.41,3.41,0,0,0,191,8.49Z"/><path class="cls-3" d="M191,8.49H73.07a3.41,3.41,0,0,0-3.41,3.41v4.87H194.41V11.9A3.41,3.41,0,0,0,191,8.49Z"/><rect class="cls-3" x="69.66" y="8.49" width="124.74" height="102.3" rx="3.41"/><path class="cls-1" d="M173.11,14.2h-1.87a.32.32,0,0,1-.32-.32V12a.32.32,0,0,1,.32-.32h1.87a.32.32,0,0,1,.32.32v1.87A.32.32,0,0,1,173.11,14.2Zm-1.55-.63h1.24V12.33h-1.24Z"/><path class="cls-1" d="M181.2,13.26h-2.64a.32.32,0,0,1,0-.63h2.64a.32.32,0,1,1,0,.63Z"/><path class="cls-1" d="M188.63,14.2a.37.37,0,0,1-.23-.1l-1.86-1.86a.32.32,0,1,1,.45-.45l1.86,1.86a.31.31,0,0,1,0,.45A.32.32,0,0,1,188.63,14.2Z"/><path class="cls-1" d="M186.76,14.2a.32.32,0,0,1-.22-.1.31.31,0,0,1,0-.45l1.86-1.86a.32.32,0,0,1,.45.45L187,14.1A.37.37,0,0,1,186.76,14.2Z"/><line class="cls-3" x1="183.94" y1="8.85" x2="183.94" y2="16.43"/><line class="cls-3" x1="176" y1="8.85" x2="176" y2="16.43"/><line class="cls-3" x1="168.07" y1="8.85" x2="168.07" y2="16.43"/><path class="cls-4" d="M185.79,97H80.09a2.48,2.48,0,0,1-2.49-2.48h0A2.48,2.48,0,0,1,80.09,92h105.7a2.48,2.48,0,0,1,2.49,2.49h0A2.48,2.48,0,0,1,185.79,97Z"/><path class="cls-4" d="M185.79,106.91H80.09a2.48,2.48,0,0,1-2.49-2.49h0a2.49,2.49,0,0,1,2.49-2.49h105.7a2.49,2.49,0,0,1,2.49,2.49h0A2.48,2.48,0,0,1,185.79,106.91Z"/><path class="cls-4" d="M185.79,78.28H80.09a2.48,2.48,0,0,1-2.49-2.49h0a2.49,2.49,0,0,1,2.49-2.49h105.7a2.49,2.49,0,0,1,2.49,2.49h0A2.48,2.48,0,0,1,185.79,78.28Z"/><path class="cls-4" d="M185.79,88.24H80.09a2.49,2.49,0,0,1-2.49-2.49h0a2.48,2.48,0,0,1,2.49-2.49h105.7a2.48,2.48,0,0,1,2.49,2.49h0A2.49,2.49,0,0,1,185.79,88.24Z"/><path class="cls-4" d="M185.79,59.61H80.09a2.48,2.48,0,0,1-2.49-2.49h0a2.49,2.49,0,0,1,2.49-2.49h105.7a2.49,2.49,0,0,1,2.49,2.49h0A2.48,2.48,0,0,1,185.79,59.61Z"/><path class="cls-4" d="M185.79,69.57H80.09a2.49,2.49,0,0,1-2.49-2.49h0a2.48,2.48,0,0,1,2.49-2.49h105.7a2.48,2.48,0,0,1,2.49,2.49h0A2.49,2.49,0,0,1,185.79,69.57Z"/><rect class="cls-5" x="84.71" y="39.35" width="96.45" height="11.43"/><text class="cls-6" transform="translate(112.12 30.42)">Paste Code</text><text class="cls-7" transform="translate(106.33 48.63)">ABCabc123</text><path class="cls-8" d="M68.78,105a1.08,1.08,0,0,1-1-.82l-1.18-4.66a1.09,1.09,0,0,1,.12-.83,1.13,1.13,0,0,1,.67-.5L79,95.26a1.24,1.24,0,0,1,.27,0,1.14,1.14,0,0,1,.57.16,1.11,1.11,0,0,1,.48.66l1.18,4.66a1.09,1.09,0,0,1-.12.83,1.13,1.13,0,0,1-.67.5L69.05,105l-.1,0Z"/><rect class="cls-9" x="66.84" y="98.21" width="13.75" height="1.39" transform="translate(-21.96 21.05) rotate(-14.17)"/><rect class="cls-9" x="67.45" y="100.64" width="13.75" height="1.39" transform="translate(-22.54 21.27) rotate(-14.17)"/><g class="cls-10"><path class="cls-11" d="M80.09,96.11l1.18,4.66a.86.86,0,0,1-.62,1L69,104.76h-.08a8.87,8.87,0,0,1,.91-1.58,8.51,8.51,0,0,1,1.84-1.9,8,8,0,0,1,2-1.13,24.21,24.21,0,0,0,3.9-1.49,4.32,4.32,0,0,0,.87-.73,5.57,5.57,0,0,0,.72-1.11c.2-.41.39-.84.6-1.25A.83.83,0,0,1,80.09,96.11Z"/></g><path class="cls-11" d="M79.26,95.45a.87.87,0,0,1,.45.13.83.83,0,0,1,.38.53l1.18,4.66a.86.86,0,0,1-.62,1L69,104.76h-.21a.86.86,0,0,1-.84-.65l-1.17-4.66a.86.86,0,0,1,.62-1l11.66-2.94a.76.76,0,0,1,.21,0Zm0-.44a1.12,1.12,0,0,0-.32,0L67.28,98a1.31,1.31,0,0,0-1,1.59l1.18,4.66a1.3,1.3,0,0,0,1.27,1H69l.12,0,11.66-2.94a1.28,1.28,0,0,0,.8-.6,1.32,1.32,0,0,0,.15-1L80.53,96a1.28,1.28,0,0,0-.58-.8,1.31,1.31,0,0,0-.69-.19Z"/><path class="cls-12" d="M82.24,62.23,77.6,81.62a.89.89,0,0,1-1.07.66l-7.18-1.72a.89.89,0,0,1-.66-1.07L73.33,60.1a.87.87,0,0,1,1.07-.65l7.18,1.71a.92.92,0,0,1,.23.09.92.92,0,0,1,.43,1Z"/><path class="cls-13" d="M82.24,62.23,77.6,81.62a.89.89,0,0,1-1.07.66l-7.18-1.72a.89.89,0,0,1-.66-1.07l1.17-4.88c2.42,0,6.22-.57,8.52-5.62,1-2.15,1.6-4.46,2.73-6.55.19-.35.44-.78.7-1.19a.92.92,0,0,1,.43,1Z"/><path class="cls-14" d="M75.18,61a36.79,36.79,0,0,1-1.88,7.93.23.23,0,0,1-.44-.11,36.78,36.78,0,0,1,1.91-7.91.21.21,0,0,1,.28-.12A.2.2,0,0,1,75.18,61Z"/><path class="cls-11" d="M82.27,61.37a1,1,0,0,0-.35-.31,1.26,1.26,0,0,0-.29-.12l-3.37-.8L77.82,60l-3.37-.8a1.1,1.1,0,0,0-1.34.82l-2.27,9.48-.1.43-2.27,9.48a1.12,1.12,0,0,0,.83,1.34l3.37.8.44.11,3.37.81a1.15,1.15,0,0,0,.26,0,1.12,1.12,0,0,0,.58-.17,1.1,1.1,0,0,0,.5-.69l2.26-9.47.11-.44,2.27-9.47A1.12,1.12,0,0,0,82.27,61.37Zm-8.72-1.22a.66.66,0,0,1,.64-.51l.16,0,3.37.81L75.3,70.59l-4-1ZM69.4,80.34A.62.62,0,0,1,69,80a.67.67,0,0,1-.08-.5l2.27-9.47,4,1L72.77,81.15Zm8,1.23a.64.64,0,0,1-.29.41.7.7,0,0,1-.51.08l-3.37-.81,2.42-10.12,4,1ZM82,62.18l-2.27,9.48-4-1,2.43-10.13,3.37.81.17.07a.63.63,0,0,1,.21.19A.61.61,0,0,1,82,62.18Z"/><path class="cls-15" d="M54.37,83.13a1.28,1.28,0,0,1-1-.51,1.26,1.26,0,0,1-.18-.32,1,1,0,0,1-.06-.23L51.4,72.25a1.27,1.27,0,0,1,1-1.46l10.9-2.74a1.55,1.55,0,0,1,.31,0h0a1.27,1.27,0,0,1,1.17.88l3.14,9.46a1.3,1.3,0,0,1-.1,1A1.27,1.27,0,0,1,67,80l-12.32,3.1A1.65,1.65,0,0,1,54.37,83.13Z"/><path class="cls-12" d="M65.79,72.82a.25.25,0,0,0,0-.07l-.36-1.09a1.38,1.38,0,0,0-.24-.14,1,1,0,0,0-.6,0l.49,2A1,1,0,0,0,65.79,72.82Z"/><path class="cls-12" d="M63.89,68.63l.49,2a1,1,0,0,0,.58-.41L64.56,69a.92.92,0,0,0-.18-.32A1,1,0,0,0,63.89,68.63Z"/><path class="cls-12" d="M66.65,77.23a1,1,0,0,0-.6,0l.49,2a1,1,0,0,0,.7-.62A1,1,0,0,0,66.65,77.23Z"/><path class="cls-12" d="M65.33,74.34l.49,2a1,1,0,0,0,.11-1.91A1,1,0,0,0,65.33,74.34Z"/><path class="cls-12" d="M59.94,69.15l2-.49s0,0,0,0l-1.94.48Z"/><path class="cls-12" d="M64.5,73.4a1,1,0,0,0,.6,0l-.49-2a1,1,0,0,0-.11,1.91Z"/><path class="cls-12" d="M62.71,73.67a1,1,0,0,0-1.29.59,1,1,0,0,0,0,.6l1.94-.5A1,1,0,0,0,62.71,73.67Z"/><path class="cls-12" d="M60.08,74.26A1,1,0,0,0,59.5,73a1,1,0,0,0-.6,0l.49,1.95A1,1,0,0,0,60.08,74.26Z"/><path class="cls-12" d="M63.19,69.25a1,1,0,0,0,.59,1.3,1,1,0,0,0,.6,0l-.49-2A1,1,0,0,0,63.19,69.25Z"/><path class="cls-12" d="M61.28,72.7a1,1,0,0,0,1.3-.59A1,1,0,0,0,62,70.82a1,1,0,0,0-1.29.58A1,1,0,0,0,61.28,72.7Z"/><path class="cls-12" d="M58.18,70.08,58.67,72a1,1,0,0,0,.11-1.91A1,1,0,0,0,58.18,70.08Z"/><path class="cls-12" d="M60.56,69.84a1,1,0,0,0,1.3-.58,1,1,0,0,0,0-.6l-2,.49A1,1,0,0,0,60.56,69.84Z"/><path class="cls-12" d="M65.35,77.82a1,1,0,0,0,.59,1.29,1,1,0,0,0,.6,0l-.49-2A1,1,0,0,0,65.35,77.82Z"/><path class="cls-12" d="M64.15,79.38a1,1,0,0,0-1.29.59,1,1,0,0,0,0,.6l1.94-.5A1,1,0,0,0,64.15,79.38Z"/><path class="cls-12" d="M61.53,80a1,1,0,0,0-.59-1.3,1,1,0,0,0-.6,0l.49,2A1,1,0,0,0,61.53,80Z"/><path class="cls-12" d="M64.63,75a1,1,0,0,0,.59,1.3,1,1,0,0,0,.6,0l-.49-2A1,1,0,0,0,64.63,75Z"/><path class="cls-12" d="M62.72,78.41a1,1,0,0,0,.71-1.89,1,1,0,0,0-.71,1.89Z"/><path class="cls-12" d="M60.22,75.82a1,1,0,0,0-.6,0l.49,1.94a1,1,0,0,0,.11-1.91Z"/><path class="cls-12" d="M62,75.55A1,1,0,0,0,63.3,75a1.06,1.06,0,0,0,0-.61l-1.94.5A1,1,0,0,0,62,75.55Z"/><path class="cls-12" d="M64.77,80.07l-1.94.5a1,1,0,0,0,.09.22l1.88-.48A1,1,0,0,0,64.77,80.07Z"/><path class="cls-12" d="M54.23,70.59l2-.49s0,0,0,0l-1.94.49Z"/><path class="cls-12" d="M58.79,74.84a1,1,0,0,0,.6,0l-.49-1.95a1,1,0,0,0-.11,1.91Z"/><path class="cls-12" d="M57,75.11a1,1,0,0,0-1.29.59,1,1,0,0,0,0,.6l1.94-.49A1,1,0,0,0,57,75.11Z"/><path class="cls-12" d="M53.79,74.4a1,1,0,0,0-.6,0l.49,1.95a1,1,0,0,0,.11-1.92Z"/><path class="cls-12" d="M57.48,70.69a1,1,0,0,0,.59,1.3,1,1,0,0,0,.6,0l-.49-1.94A1,1,0,0,0,57.48,70.69Z"/><path class="cls-12" d="M55.57,74.14a1,1,0,0,0,1.3-.59,1,1,0,1,0-1.3.59Z"/><path class="cls-12" d="M53.65,72.84a1,1,0,0,0-.58-1.29,1,1,0,0,0-.6,0L53,73.46A1,1,0,0,0,53.65,72.84Z"/><path class="cls-12" d="M54.85,71.28a1,1,0,0,0,1.3-.58,1,1,0,0,0,0-.6l-2,.49A1,1,0,0,0,54.85,71.28Z"/><path class="cls-12" d="M60.83,80.59l-.49-2a1,1,0,0,0-.7.62,1,1,0,0,0,.59,1.29A1,1,0,0,0,60.83,80.59Z"/><path class="cls-12" d="M58.45,80.82a1,1,0,0,0-1.3.59,1,1,0,0,0,0,.6l1.94-.49A1,1,0,0,0,58.45,80.82Z"/><path class="cls-12" d="M55.82,81.41a1,1,0,0,0-.59-1.3,1,1,0,0,0-.6,0l.49,2A1,1,0,0,0,55.82,81.41Z"/><path class="cls-12" d="M58.92,76.4a1,1,0,0,0,.59,1.3,1,1,0,0,0,.6,0l-.49-1.94A1,1,0,0,0,58.92,76.4Z"/><path class="cls-12" d="M57,79.85a1,1,0,0,0,1.29-.59,1,1,0,0,0-1.88-.71A1,1,0,0,0,57,79.85Z"/><path class="cls-12" d="M54.51,77.26a1,1,0,0,0-.6,0l.49,1.94a1,1,0,0,0,.11-1.91Z"/><path class="cls-12" d="M56.29,77a1,1,0,0,0,1.3-.58,1,1,0,0,0,0-.6l-1.94.49A1,1,0,0,0,56.29,77Z"/><path class="cls-12" d="M59.06,81.52,57.12,82a1.8,1.8,0,0,0,.08.21l1.89-.47A.85.85,0,0,0,59.06,81.52Z"/><path class="cls-12" d="M52.49,75a1,1,0,0,0,.59,1.3,1,1,0,0,0,.6,0l-.49-1.95A1,1,0,0,0,52.49,75Z"/><path class="cls-12" d="M51.77,72.14a1,1,0,0,0,.59,1.29,1,1,0,0,0,.6,0l-.49-1.94A1,1,0,0,0,51.77,72.14Z"/><path class="cls-12" d="M55.12,82l-.49-2a1,1,0,0,0-.7.62A1,1,0,0,0,54.52,82,1,1,0,0,0,55.12,82Z"/><path class="cls-12" d="M53.21,77.84a1,1,0,0,0,.59,1.3,1,1,0,0,0,.6,0l-.49-1.94A1,1,0,0,0,53.21,77.84Z"/><path class="cls-16" d="M67,79.78,54.63,82.87a1.05,1.05,0,0,1-1.1-.38,1.35,1.35,0,0,1-.15-.26c7.33-3.07,11.16-7.29,9.69-13.9l.23-.06a1,1,0,0,1,.3,0,1,1,0,0,1,1,.72l3.13,9.46A1.06,1.06,0,0,1,67,79.78Z"/><path class="cls-11" d="M68.12,78.28,65,68.82a1.5,1.5,0,0,0-1.38-1h0a1.5,1.5,0,0,0-.37,0l-.45.11c-1-3.39-3.88-5.56-6.58-4.89S52,67,52.68,70.47l-.39.1a1.51,1.51,0,0,0-1.11,1.72l1.71,9.82a1.34,1.34,0,0,0,.07.27,1.41,1.41,0,0,0,.21.38,1.51,1.51,0,0,0,1.2.59,1.55,1.55,0,0,0,.37,0l12.32-3.1a1.5,1.5,0,0,0,1.06-1.93ZM56.27,63.49c2.46-.62,5.1,1.41,6,4.56l-9.18,2.31C52.44,67.15,53.82,64.1,56.27,63.49ZM67,79.78,54.63,82.87l-.26,0a1.07,1.07,0,0,1-.84-.41,1.17,1.17,0,0,1-.15-.27,1.05,1.05,0,0,1-.05-.19l-1.71-9.82A1,1,0,0,1,52.4,71l.41-.11.38-.09,9.26-2.33.38-.09.47-.12a1.15,1.15,0,0,1,.26,0h0a1,1,0,0,1,1,.72l3.13,9.46A1.06,1.06,0,0,1,67,79.78Z"/><path class="cls-17" d="M66.07,106.75a4.29,4.29,0,0,1-3.61-2l0,0L57,95,46.34,74.53A3.11,3.11,0,0,0,43.73,73l-.33,0-3.49.43h-.08a.66.66,0,0,1-.66-.59.68.68,0,0,1,.58-.75l3.48-.42a4.19,4.19,0,0,1,.5,0,4.44,4.44,0,0,1,3.77,2.21l0,0L58.17,94.35,63.6,104a2.9,2.9,0,0,0,3.14,1.29l18.91-4.75a.44.44,0,0,1,.16,0,.66.66,0,0,1,.65.5.68.68,0,0,1-.49.82l-18.9,4.75A4.21,4.21,0,0,1,66.07,106.75Z"/><path class="cls-18" d="M58.46,97.32a3.89,3.89,0,0,1-2.64-1.25l-1.75-3.25-2.81-5.19-2.43-4.51,0-.07v0h0l-.73-1.36A1.63,1.63,0,0,1,48,80.24a1.69,1.69,0,0,1,1.16-1L81.88,71a1.84,1.84,0,0,1,.41-.05A1.67,1.67,0,0,1,84,72.63l0,7.7,0,9.33a1.7,1.7,0,0,1-1.3,1.62L75.75,93l-.91.22-4,1-.9.23-4.24,1.06-.91.23-3.86,1L60,97l-1.22.31A1.23,1.23,0,0,1,58.46,97.32Z"/><path class="cls-17" d="M83.74,80.33v-1l-3.44.86-.17-5a.46.46,0,0,0-.48-.45.47.47,0,0,0-.45.48l.18,5.2-5.32,1.34-.82-5.56a.47.47,0,0,0-.53-.39.46.46,0,0,0-.39.52l.84,5.66-5.11,1.29-1.43-5.66a.46.46,0,0,0-.56-.34.44.44,0,0,0-.28.22.41.41,0,0,0-.06.34l1.43,5.66-5.3,1.34-2-5.39a.46.46,0,0,0-.87.31l1.91,5.31-5.11,1.29L53.5,81.73a.46.46,0,0,0-.62-.21.46.46,0,0,0-.21.62l2.24,4.51-3.45.87c.14.27.3.55.45.84l3.42-.86,2.18,4.39-3.24.82c.14.28.29.55.45.84l3.2-.81,2,4,.92-.23-2-4,4.36-1.1,1.49,4.15.9-.23-1.49-4.15L68.77,90l1.07,4.26.9-.23-1.07-4.26,4.47-1.13L74.79,93l.9-.23L75,88.42l4.56-1.15.15,4.51.92-.23L80.52,87l3.2-.81v-1l-3.23.81-.16-4.9ZM58.42,91.66l-2.17-4.39,5-1.27,1.63,4.54Zm10.13-2.55-4.76,1.2-1.63-4.53,5.21-1.32ZM74,87.73l-4.56,1.15-1.17-4.65,5-1.26Zm5.57-1.4L74.91,87.5l-.71-4.76,5.21-1.32Z"/><path class="cls-19" d="M71.18,107.73a3,3,0,1,1-3.69-2.22,3.09,3.09,0,0,1,1.09-.07A3,3,0,0,1,71.18,107.73Z"/><path class="cls-19" d="M85.91,104a3,3,0,0,1-4.44,3.4A3,3,0,0,1,80,105.5a3,3,0,0,1,2.21-3.7,2.9,2.9,0,0,1,1.09-.07A3,3,0,0,1,85.91,104Z"/><path class="cls-19" d="M40.71,72.56a1.85,1.85,0,0,1-1.33,2.24,1.86,1.86,0,0,1-1.88-.61,1.92,1.92,0,0,1-.36-.73,1.85,1.85,0,0,1,1.33-2.24,1.87,1.87,0,0,1,1,0A1.84,1.84,0,0,1,40.71,72.56Z"/><path class="cls-19" d="M83.76,72.63v1.63L49,83l-.77-1.44a1.44,1.44,0,0,1,1-2.08l32.72-8.22A1.45,1.45,0,0,1,83.76,72.63Z"/><path class="cls-20" d="M61.76,77.55c1.53-.53,3.07-1,4.62-1.44.77-.23,1.55-.44,2.33-.65L71,74.85l2.35-.58c.78-.18,1.56-.37,2.35-.54,1.57-.35,3.15-.67,4.75-.93a.34.34,0,0,1,.16.66c-1.53.53-3.07,1-4.62,1.43-.77.23-1.55.43-2.32.65l-2.34.6L69,76.71c-.78.18-1.57.37-2.35.53-1.58.35-3.16.67-4.75.92a.32.32,0,0,1-.16-.61Z"/><path class="cls-12" d="M61.2,85.52a2.88,2.88,0,0,1,3.1-1.13c1,.3,1.27,1.46,0,2.21C62.55,87.62,60.52,86.82,61.2,85.52Z"/><path class="cls-12" d="M74.22,82.24a2.86,2.86,0,0,0-3.26.47c-.77.75-.42,1.89,1.05,1.94C74,84.72,75.44,83.05,74.22,82.24Z"/><path class="cls-1" d="M68.85,81.45a.78.78,0,0,1,.83.59c.55,2-2.22,3.36-3.73,2.32-.55-.37-1.29-1.42-.56-2A7.52,7.52,0,0,1,68.85,81.45Z"/><path class="cls-16" d="M83.76,72.63v1.63l0,15.39a1.45,1.45,0,0,1-1.12,1.41l-23.89,6A3.55,3.55,0,0,1,56,96l-.44-.82c25.65-5.77,25.91-19.74,26.71-23.94A1.44,1.44,0,0,1,83.76,72.63Z"/><g class="cls-21"><path class="cls-17" d="M71.18,107.73a3,3,0,0,1-4.43,3.4,3.67,3.67,0,0,0,1.83-5.69A3,3,0,0,1,71.18,107.73Z"/><path class="cls-17" d="M85.91,104a3,3,0,0,1-4.44,3.4,3.66,3.66,0,0,0,1.83-5.68A3,3,0,0,1,85.91,104Z"/><path class="cls-17" d="M40.71,72.56a1.85,1.85,0,0,1-1.33,2.24,1.86,1.86,0,0,1-1.88-.61,3.49,3.49,0,0,0,1.28-.63,2.21,2.21,0,0,0,.69-2.31A1.84,1.84,0,0,1,40.71,72.56Z"/></g><path class="cls-11" d="M86,102.09a.89.89,0,0,0,.65-1.08.9.9,0,0,0-.87-.68.83.83,0,0,0-.22,0l-18.9,4.75a2.55,2.55,0,0,1-.61.08,2.75,2.75,0,0,1-2.29-1.28L60,97.2,61,97l3.86-1,.9-.23L70,94.7l.9-.22,4.05-1,.9-.23,4.06-1,.92-.23,1.92-.48a1.91,1.91,0,0,0,1.46-1.84v-17a1.9,1.9,0,0,0-1.91-1.87h0a1.89,1.89,0,0,0-.47.06L50.3,78.75l-2.58-5,0,0a4.66,4.66,0,0,0-4-2.31,4.41,4.41,0,0,0-.52,0l-2.62.32A2,2,0,0,0,39.54,71a1.94,1.94,0,0,0-1.12,0,2,2,0,0,0-1.27.94,2.05,2.05,0,0,0-.23,1.57,2.18,2.18,0,0,0,.41.82,2.11,2.11,0,0,0,1.6.74,2,2,0,0,0,2-1.53l2.5-.31h.31a2.85,2.85,0,0,1,2.41,1.42l2.41,4.63a1.92,1.92,0,0,0-.77.87,1.84,1.84,0,0,0,.07,1.63l.73,1.35s0,0,0,0a.08.08,0,0,0,0,0v0l.27.51c.33.6,1,1.77,2.16,4l.32.57.14.27.84,1.55,1.51,2.8.38.7.08.14c.19.37.4.75.61,1.15l.25.45.43.81a4,4,0,0,0,2.54,1.34l4.08,7.3,0,0a4.58,4.58,0,0,0,3.08,2.06,3.2,3.2,0,0,0-.29,2.35,3.26,3.26,0,0,0,3.17,2.47,3.19,3.19,0,0,0,.8-.1,3.26,3.26,0,0,0,2-1.49,3.31,3.31,0,0,0,.46-1.67A3.26,3.26,0,0,0,70.4,106l9.47-2.39a3.34,3.34,0,0,0-.09,1.91,3.29,3.29,0,0,0,1.58,2.06A3.19,3.19,0,0,0,83,108a3.57,3.57,0,0,0,.8-.09,3.28,3.28,0,0,0,2-1.5,3.22,3.22,0,0,0,.47-1.67,3.09,3.09,0,0,0-.11-.8,3.23,3.23,0,0,0-1-1.64l.9-.23ZM39.32,74.58a1.64,1.64,0,0,1-1.64-.53,1.61,1.61,0,0,1-.32-.64,1.56,1.56,0,0,1,.18-1.23,1.61,1.61,0,0,1,1-.74,1.75,1.75,0,0,1,.4,0,1.84,1.84,0,0,1,.47.07,1.71,1.71,0,0,1,.65.39s0,0,.05.05a1.37,1.37,0,0,1,.26.37,1.26,1.26,0,0,1,.13.34,1.62,1.62,0,0,1,0,.53,1.53,1.53,0,0,1-.11.47A1.62,1.62,0,0,1,39.32,74.58Zm7.21-.15a3.29,3.29,0,0,0-2.8-1.65,2.17,2.17,0,0,0-.36,0L41,73.09V73a2.22,2.22,0,0,0-.06-.51,1.42,1.42,0,0,0-.1-.29l2.43-.3a3.71,3.71,0,0,1,.47,0A4.2,4.2,0,0,1,47.31,74a0,0,0,0,1,0,0l2.53,4.85-.75.19-.14,0ZM57.87,97A3.4,3.4,0,0,1,56,96l-.44-.82-.86-1.6-.45-.84-2.36-4.35-.45-.84C49.7,84.27,49.17,83.27,49,83l0,0,0,0h0v0l-.74-1.36a1.42,1.42,0,0,1,.52-1.88,1.5,1.5,0,0,1,.41-.18h0l.85-.22.45-.11,31.42-7.9a1.49,1.49,0,0,1,.36-.05h0a1.44,1.44,0,0,1,1.46,1.42v7.7l0,5v4.37a1.45,1.45,0,0,1-1.12,1.41l-1.92.49-.92.23-4.06,1-.9.22-4.05,1-.9.23L65.6,95.33l-.9.23-3.86,1-.92.24-.12,0-.45.11-.65.16a.9.9,0,0,1-.24,0h0A2.43,2.43,0,0,1,57.87,97Zm4.78,7.61a0,0,0,0,1,0,0l-4-7.07.12,0,.78-.2,3.82,6.84a3.23,3.23,0,0,0,2.68,1.49,2.87,2.87,0,0,0,.64-.08,3.32,3.32,0,0,0-1.1.94A4.13,4.13,0,0,1,62.65,104.62ZM71,107.78a2.82,2.82,0,0,1-.32,2.14,2.8,2.8,0,0,1-3.79,1,2.78,2.78,0,0,1-1.37-1.77,2.82,2.82,0,0,1,.32-2.14l0,0a2.46,2.46,0,0,1,.34-.44,2.78,2.78,0,0,1,1.36-.8,2.63,2.63,0,0,1,.68-.08,1.83,1.83,0,0,1,.33,0,2.12,2.12,0,0,1,.71.18,2.55,2.55,0,0,1,.59.31A2.84,2.84,0,0,1,71,107.78Zm-1-2.1a3.25,3.25,0,0,0-1.33-.46,3,3,0,0,0-.42,0l13.21-3.32a3.22,3.22,0,0,0-1.27,1.24Zm15.76-1.61a2.79,2.79,0,0,1-.32,2.13,2.76,2.76,0,0,1-1.73,1.29,2.82,2.82,0,0,1-3.22-4,3.25,3.25,0,0,1,.36-.55,2.78,2.78,0,0,1,1.48-.93,2.72,2.72,0,0,1,.69-.09l.33,0a2.62,2.62,0,0,1,.73.19,2.68,2.68,0,0,1,.57.32A2.8,2.8,0,0,1,85.69,104.07Zm-1-2.1a3.31,3.31,0,0,0-1.34-.47l-.37,0,2.74-.69h.11a.45.45,0,0,1,.43.34.44.44,0,0,1-.32.54Z"/><path class="cls-11" d="M67.89,107.13a1.38,1.38,0,1,0,1.68,1A1.38,1.38,0,0,0,67.89,107.13Z"/><path class="cls-11" d="M82.61,103.41a1.38,1.38,0,1,0,.68,2.68,1.37,1.37,0,0,0,1-1.67A1.39,1.39,0,0,0,82.61,103.41Z"/><path class="cls-11" d="M62.39,83.86a1.13,1.13,0,0,0,1.43-1.63,1.23,1.23,0,0,0-1.55-.38A1.12,1.12,0,0,0,62.39,83.86Z"/><path class="cls-11" d="M72.38,81.34a1.12,1.12,0,0,0-.85-1.83,1.22,1.22,0,0,0-1.17,1.07A1.12,1.12,0,0,0,72.38,81.34Z"/><path class="cls-19" d="M97.45,101.15a9.41,9.41,0,0,1-2.47.4,5.06,5.06,0,0,1-2.4-.5,4.29,4.29,0,0,1-2-2.3A14.34,14.34,0,0,1,89.47,94c0-2.19.65-2.85,2.43-4-1-1.06-2-.6-1.91-1.23,0-.24.28-.46.81-.67a3.22,3.22,0,0,1,1.22-.2c1.66,0,2.1,1,2.53.9,0,0,2.65-1.26,4.58-.35l.14.08a2.7,2.7,0,0,1,.5.33c1.57,1.26,2.5,4,2.83,5C103.89,97.63,101.31,100,97.45,101.15Z"/><path class="cls-11" d="M94.87,101.77a5.22,5.22,0,0,1-2.39-.52,4.52,4.52,0,0,1-2.16-2.42A14.49,14.49,0,0,1,89.25,94c0-2.19.67-3,2.29-4a2.57,2.57,0,0,0-1.1-.54c-.33-.08-.71-.19-.68-.67s.33-.61.95-.86A3.66,3.66,0,0,1,92,87.72a3.5,3.5,0,0,1,2.08.71c.16.1.32.21.38.19h0c.54-.27,2.93-1.19,4.73-.34l.16.08a3.54,3.54,0,0,1,.53.36c1.61,1.28,2.55,4,2.9,5a5,5,0,0,1-.17,4.09c-.81,1.57-2.59,2.78-5.12,3.51h0a9.39,9.39,0,0,1-2.53.4Zm-3-13.6a3,3,0,0,0-1,.18c-.49.19-.66.37-.67.47s0,.11.35.21a2.8,2.8,0,0,1,1.5.86.2.2,0,0,1,.06.18.27.27,0,0,1-.1.16c-1.71,1.08-2.36,1.68-2.32,3.78a14,14,0,0,0,1,4.65,4.07,4.07,0,0,0,1.94,2.19,4.84,4.84,0,0,0,2.3.47,8.83,8.83,0,0,0,2.41-.38h0c2.42-.7,4.1-1.83,4.86-3.29a4.62,4.62,0,0,0,.14-3.72c-.35-1-1.25-3.65-2.76-4.85a2.72,2.72,0,0,0-.46-.32L99,88.7c-1.76-.84-4.26.29-4.37.34h0c-.26.08-.49-.07-.75-.25A3,3,0,0,0,92,88.17Z"/><path class="cls-20" d="M91.86,91.54a4,4,0,0,0-.69,4.93.21.21,0,0,0,.4-.1c0-.29,0-.49,0-.73a7,7,0,0,1,1.17-4.07l0,0a.28.28,0,0,0-.08-.34C92.48,91.08,92,91.4,91.86,91.54Z"/><path class="cls-11" d="M95.74,94.93c-.5-.11-1.33-.18-1.5-.58a.38.38,0,0,1,.19-.45c.44-.19.24.56.83.3l.38-.18.11,0c.14-.07.21-.15.15-.28a1.52,1.52,0,0,0-.37-.6,1.11,1.11,0,0,0-1-.26c-.07,0-.1,0-.13,0l-.25-.57c-.1-.08-.66.19-.63.17-.16.08-.41.15-.35.29l.26.49s.06.06,0,.11a1.76,1.76,0,0,0-.46.62,1,1,0,0,0,0,.73,1.64,1.64,0,0,0,.78.76c.59.26,1.61.28,1.86.86.07.15-.06.33-.2.39a.3.3,0,0,1-.43-.18l-.1-.21c-.12-.28-.34-.09-.57,0l-.28.09c-.31.14-.28.22-.16.49.27.61.51,1,1.27.92.52-.07.27.76.77.54l.2-.08.28-.14c.19-.08.23-.19.18-.3v0l-.21-.49a3.25,3.25,0,0,0,.32-.45,1.07,1.07,0,0,0,0-1A1.58,1.58,0,0,0,95.74,94.93Z"/><path class="cls-11" d="M99.6,94.53l-.65.28-1.32-3.57,0-.07a.56.56,0,1,0-1,.52l1.74,3.39-.64.28a.19.19,0,0,0,0,.32l1.67,1.22a.19.19,0,0,0,.29-.13l.22-2A.18.18,0,0,0,99.6,94.53Z"/><g class="cls-21"><path class="cls-17" d="M97.45,101.15a9.41,9.41,0,0,1-2.47.4,6,6,0,0,1-2.4-.5s0,0,0,0c.27-.82,1.33-1.29,2.32-1.54s2.13-.38,3.16-.68a4.4,4.4,0,0,0,2.53-1.6,3.23,3.23,0,0,0,0-3,15,15,0,0,1-1.2-2.92,3.77,3.77,0,0,1,.39-2.36c1.57,1.26,2.5,4,2.83,5C103.89,97.63,101.31,100,97.45,101.15Z"/></g><path class="cls-8" d="M46.53,98.85a2.9,2.9,0,0,1-.74.58.24.24,0,0,1-.29-.36c.23-.3.75-.63.71-.72s-.15,0-.24,0a5.74,5.74,0,0,1-1.07,0c-.24,0-.2-.43,0-.47a9.93,9.93,0,0,1,1.44,0c.33,0,.08-.28-.16-.65-.14-.21-.23-.53,0-.63s.3.08.42.25c.62.89.44.91.8-.36.07-.24.17-.52.4-.44s.14.36,0,.91c0,.08-.06.15-.07.22a1.57,1.57,0,0,0-.09.48c.2,0,.31-.15.46-.21s.37-.32.65-.26a.18.18,0,0,1,.14.24c-.21.49-1,.6-.58.82a5.33,5.33,0,0,1,1,.48.22.22,0,0,1-.18.4c-.42-.08-1.13-.5-1.21-.42s.58.84.59,1.13a.21.21,0,0,1-.33.2c-.24-.15-.28-.28-.69-.88,0,0-.06-.11-.13-.08s-.07.09-.08.15c0,.29-.14.94-.14,1a.26.26,0,0,1-.51-.08c.12-1.13.27-1.42-.08-1.15Z"/><path class="cls-8" d="M46.35,109.12c-.31.28-.7.68-.9.42s0-.31.22-.47.44-.33.42-.39-.07,0-.84-.07c-.22,0-.48,0-.44-.25s.15-.22,1.4-.2c.3,0,.08-.24-.12-.57s-.18-.47,0-.55.26.08.36.23c.52.8.36.81.71-.3.06-.2.16-.45.36-.37.36.14-.19,1.08-.16,1.4.17,0,.27-.12.41-.17s.32-.27.57-.21.08.35-.14.5c-.57.39-.55.26.33.71.17.09.38.22.29.39s-.32.09-.53,0c-.94-.41-.94-.54-.35.45.26.44-.12.71-.47.14C47,109,47,109,46.87,110c0,.09,0,.41-.31.34a.19.19,0,0,1-.16-.23c.13-1,.27-1.24,0-1Z"/><path class="cls-8" d="M56.59,108a2.63,2.63,0,0,1-.48.73.23.23,0,0,1-.37-.23c.12-.33.48-.77.43-.84s-.16,0-.23,0a5.6,5.6,0,0,1-1,.28c-.22,0-.3-.32-.13-.42a9.53,9.53,0,0,1,1.26-.45c.3-.1,0-.26-.33-.52s-.35-.4-.18-.56.29,0,.44.1c.81.61.66.68.61-.56,0-.22,0-.5.23-.5s.23.3.27.81a1.34,1.34,0,0,0,0,.2,1.36,1.36,0,0,0,.06.45c.18,0,.23-.21.35-.32s.23-.38.49-.41a.16.16,0,0,1,.19.17c0,.5-.73.83-.27.89.72.09,1.19.08,1.15.37s-.29.21-.53.19c-1.1-.07-1.15-.21-.19.58.4.33.14.76-.42.31-.83-.66-.73-.62-.55.43,0,.07,0,.14,0,.21,0,.27-.41.37-.47.07-.22-1-.18-1.34-.41-1Z"/><path class="cls-8" d="M91.9,81.49a2.9,2.9,0,0,1,.93.07.25.25,0,0,1,0,.47c-.37.06-1,0-1,0s.08.14.14.2a6,6,0,0,1,.76.76c.14.19-.15.45-.33.35s-.32-.28-1.07-1c-.25-.23-.25.14-.32.57,0,.25-.2.55-.43.47s-.17-.26-.14-.47c.16-1.08.3-1-.83-.28-.21.12-.48.26-.59,0s.14-.36.61-.68c.06,0,.14-.06.19-.1s.3-.16.39-.3c-.12-.15-.32-.1-.48-.16s-.48,0-.65-.25a.18.18,0,0,1,.07-.27c.49-.22,1.16.26,1-.2a5.35,5.35,0,0,1-.38-1,.22.22,0,0,1,.41-.17c.25.35.48,1.14.6,1.13s.14-1,.33-1.23a.21.21,0,0,1,.38.08c.07.27,0,.4-.09,1.11,0,.06,0,.13,0,.16s.11,0,.16-.06c.23-.18.74-.6.77-.61.25-.16.56.19.31.4-.86.74-1.17.86-.72.89Z"/><path class="cls-8" d="M97,74.73c.42,0,1,0,1,.31s-.24.2-.49.19-.54-.06-.57,0,0,.07.57.62c.15.16.33.35.15.49s-.26.06-1.16-.82c-.21-.2-.22.12-.3.5,0,.22-.18.47-.39.4s-.14-.24-.1-.42c.16-.93.28-.84-.73-.26-.18.1-.42.21-.52,0-.16-.34.89-.66,1.08-.91-.11-.14-.28-.1-.42-.15s-.42,0-.56-.24.18-.32.45-.27c.68.1.57.18.24-.75-.07-.18-.13-.42,0-.49s.3.15.39.37c.41.94.32,1,.56-.09.11-.5.57-.44.44.22-.19,1-.2.87.6.26.07,0,.29-.28.46,0a.21.21,0,0,1,0,.28c-.77.62-1,.72-.66.76Z"/><path class="cls-8" d="M90,67.14a2.68,2.68,0,0,1,.85-.21.23.23,0,0,1,.11.43c-.31.16-.88.23-.89.32s.11.11.18.14a6.22,6.22,0,0,1,.9.45c.18.13,0,.44-.19.4a8.44,8.44,0,0,1-1.23-.53c-.28-.13-.17.2-.12.6,0,.23,0,.54-.24.54s-.22-.19-.26-.38c-.17-1,0-.94-.82,0-.15.17-.34.37-.51.21s0-.38.35-.78l.14-.15c.08-.13.21-.22.26-.38-.16-.1-.32,0-.47,0s-.44.13-.65,0a.17.17,0,0,1,0-.26c.37-.34,1.12-.11.81-.47-.47-.55-.81-.86-.58-1.05s.35.05.52.23c.75.79.69.93.53-.29-.07-.53.41-.66.52.06.15,1,.11,1,.69.05,0-.06.07-.12.11-.17.18-.21.56,0,.4.26-.54.9-.79,1.1-.38,1Z"/><text class="cls-22" transform="translate(116.74 77.22)">Apply</text><path class="cls-23" d="M190.06,63.72c0,.23-.07.45-.11.68a.26.26,0,0,1-.09.14,1.87,1.87,0,0,0-.32.42,1,1,0,0,1-.42.32c-.26.1-.54.13-.8.22a.47.47,0,0,1-.54-.13l-.27-.21c-.18-.11-.28-.34-.46-.43s-.25-.33-.35-.5c-.25-.45-.25-.45-.27-1.23-.15-.16,0-.34-.05-.51s.15-.39.2-.59.2-.19.33-.25l-.06.17H187s0,0,.05,0l.73-.31.22.2c.17-.1.32-.18.38-.38.16-.47.34-.93.52-1.42l-.26-.12c-.26-.13-.52.2-.79,0,0,0-.07,0-.09,0s-.43.09-.57.27a.24.24,0,0,1-.24.08,1.06,1.06,0,0,0-.65.17.44.44,0,0,1-.19.07,6.38,6.38,0,0,0-1.51.2.28.28,0,0,1-.22,0c-.2-.13-.34,0-.53.06a1.55,1.55,0,0,1-1,0,.91.91,0,0,1-.74.25.47.47,0,0,0-.39,0,.8.8,0,0,1-.25.11,1.39,1.39,0,0,0-.57.09,1.68,1.68,0,0,1-.64.06.73.73,0,0,0-.45.09c-.13.08-.34,0-.52.05a.09.09,0,0,0-.08,0,.63.63,0,0,1-.49.19,6.75,6.75,0,0,1-1.27.12.82.82,0,0,0-.22,0,14.52,14.52,0,0,1-2,.28,1.52,1.52,0,0,0-.65.22c0,.05.06.1.08.1.27,0,.43.15.61.3.44.37.88.75,1.35,1.09s.95.63,1.44.94a4.3,4.3,0,0,1,.48.24c.41.35.82.71,1.25,1,.6.45,1.14,1,1.74,1.44.85.65,1.65,1.34,2.47,2a18.24,18.24,0,0,0,2,1.52c.18.11.34.26.52.39a7.66,7.66,0,0,1,.66.45c1.14,1,2.27,1.9,3.42,2.83l1.68,1.35a.73.73,0,0,0,.47.21.87.87,0,0,0-.14-.74c-.14-.24-.34-.47-.18-.79,0,0,0-.14,0-.21a2.15,2.15,0,0,1-.05-.8.25.25,0,0,0,0-.21c-.16-.26.1-.57-.09-.83,0,0,0-.13.07-.18a.41.41,0,0,0,.1-.3,1.18,1.18,0,0,1,.05-.37,1.13,1.13,0,0,0,0-.41,2.65,2.65,0,0,1,.05-1.22c-.06-.09-.13-.17-.18-.25s.09-.32.14-.48c-.19-.2.07-.5-.15-.7,0-.25.08-.49.1-.74a1.77,1.77,0,0,0,0-.32,2.3,2.3,0,0,1,0-.37c0-.29.06-.57,0-.86a5.9,5.9,0,0,0-.11-.83,2.8,2.8,0,0,0-.09-.59,1.11,1.11,0,0,1,0-.74.3.3,0,0,0,0-.21,1.55,1.55,0,0,0-.15-.46c-.1-.17.08-.32,0-.51a1.12,1.12,0,0,1-.14-.67,2.63,2.63,0,0,0-.12-.84,1,1,0,0,0-.39-.67c-.09-.07-.2-.24-.17-.32.09-.25-.13-.35-.2-.52a.27.27,0,0,0-.29-.11.61.61,0,0,0-.51.48,2,2,0,0,1-.22.55,3,3,0,0,0-.38,1l0,0c.26.18.44.38.29.72a.31.31,0,0,0,0,.21,1.67,1.67,0,0,1,.07.86l-.18.15,0,0Z"/><path class="cls-24" d="M178.46,96.19a.57.57,0,0,1,.18-.44,1.55,1.55,0,0,0,.32-.48,2.43,2.43,0,0,0-.43-.42,5.56,5.56,0,0,1-1.17-1.1,6.12,6.12,0,0,0-1-.94,7.28,7.28,0,0,1-.81-.63,5.38,5.38,0,0,0-.65-.53l-.17-.14a3.7,3.7,0,0,0-1.49-.82,4.07,4.07,0,0,1-1.4-.69l-1.62-1.35a.43.43,0,0,1-.14-.16c-.33-.56-.91-.87-1.27-1.39-.48-.29-.79-.79-1.34-1,0,0,0-.09,0-.14a1.28,1.28,0,0,1,.75.28l1.72,1.23a2.42,2.42,0,0,1,.57.58,2.07,2.07,0,0,0,.47.51,13.67,13.67,0,0,1,1.25,1,1,1,0,0,0,.31.21c.62.24,1.23.52,1.82.81a2.69,2.69,0,0,1,.46.28c.34.27.66.56,1,.83s.42.29.59.47a7.79,7.79,0,0,0,1,.86,1.58,1.58,0,0,1,.54.58.58.58,0,0,0,.24.27,2.2,2.2,0,0,1,.51.4,3.07,3.07,0,0,0,.62.47,1.39,1.39,0,0,0,.72-.67c0-.07.13-.12.19-.18a.08.08,0,0,0,0,0l-.19,0a2.36,2.36,0,0,0,.32-.45.87.87,0,0,1,.54-.55c.11,0,.07-.15,0-.24v0c.05,0,.14-.07.16-.13.1-.24.17-.52.5-.57,0,0,0-.06,0-.09s0-.2.11-.28a6.86,6.86,0,0,0,.56-.65,1.57,1.57,0,0,1,.58-.62c0-.22.2-.28.33-.4s.2-.28.32-.4a1.72,1.72,0,0,0,.44-.8c.05-.14.08-.34.27-.37s.16-.12.21-.23a5.43,5.43,0,0,1,.48-.7c.36-.5.75-1,1.08-1.48a4.4,4.4,0,0,1,.77-.89,3.47,3.47,0,0,0,.25-.29c.36-.46.71-.94,1.08-1.39s.71-.82,1.07-1.21c.16-.17.36-.29.57-.47a1.4,1.4,0,0,1,.61-.85,1.38,1.38,0,0,0,.44-.6,1.06,1.06,0,0,1,.18-.33c.35-.46.7-.92,1.06-1.37a1.56,1.56,0,0,0,.33-.67c.06-.26.08-.53.11-.75l-.5-.45c-.46-.4-.91-.81-1.38-1.2a7.77,7.77,0,0,1-1-.87,2.17,2.17,0,0,0-.29-.24,11.33,11.33,0,0,1-1.77-1.47,1.12,1.12,0,0,0-.22-.16l-.74-.53a3.81,3.81,0,0,0-.58-.41,8.16,8.16,0,0,1-1.46-1.09l-.89-.7-.33-.28c-.18-.17-.36-.36-.55-.51-.66-.53-1.33-1-1.95-1.62a3.48,3.48,0,0,0-.39-.38l-.43-.31c-.14-.12-.36-.17-.43-.31s-.35-.18-.37-.36-.35-.1-.31-.34c0,0-.08-.06-.12-.08s-.25-.13-.37-.21-.41-.3-.63-.42a10.41,10.41,0,0,1-2-1.33,3.26,3.26,0,0,0-1-.67.93.93,0,0,1-.56-.38.37.37,0,0,0-.46-.13l-.39.42c-.61.74-1.2,1.48-1.82,2.21s-1.29,1.79-1.94,2.68a6.84,6.84,0,0,1-1.31,1.76s0,0,0,0c-.12.31-.42.47-.59.75a7.25,7.25,0,0,1-.62.75,1.64,1.64,0,0,0-.26.33.69.69,0,0,1-.4.33c-.06,0-.16,0-.17.1-.06.26-.28.4-.44.59s-.14.14-.14.22c0,.23-.19.34-.31.48l-.27.32c-.26.36-.55.7-.82,1.06-.09.13-.32.12-.29.35s-.31.12-.28.34a1.38,1.38,0,0,0-.43.6c-.29,0-.31.36-.52.48,0,0-.12.06-.12.1,0,.27-.25.31-.39.46s-.49.42-.51.78a.3.3,0,0,1-.1.18l-.62.72a4.5,4.5,0,0,1-.58.7c-.27.21-.33.56-.6.74,0,0,0,.14,0,.22a4.3,4.3,0,0,1,1.41.88c.34.3.69.59,1,.87a2.3,2.3,0,0,0,.37.23,3.75,3.75,0,0,1,1.13.8.59.59,0,0,0,.41.24.87.87,0,0,1,.47.25c.47.37.89.79,1.38,1.14a12.94,12.94,0,0,1,1,.84,2.18,2.18,0,0,1,.24.27c-.25.13-.25.13-.4,0l-1-.77a2.31,2.31,0,0,1-.2-.24l-.49-.42a1.23,1.23,0,0,1-.61-.42.73.73,0,0,0-.49-.3.82.82,0,0,1-.51-.3,2.59,2.59,0,0,0-.69-.5,3.21,3.21,0,0,1-1.17-.86.16.16,0,0,0-.08-.06,4.39,4.39,0,0,1-1-.81,8.33,8.33,0,0,0-1.17-.68c-.18.35-.44.59-.63.9a10.72,10.72,0,0,1-.9,1.14c-.13.16-.23.35-.36.52s-.35.31-.43.5a4,4,0,0,1-.78,1,2.46,2.46,0,0,0-.64,1c0,.13-.09.32-.32.31,0,0-.11.08-.14.14a3.8,3.8,0,0,1-.54.66,2.07,2.07,0,0,0-.46.71,1.26,1.26,0,0,1-.23.3l-.12.17a2,2,0,0,0-.28.49,1.29,1.29,0,0,1-.33.52.66.66,0,0,0-.07.26c.13.14.23.32.37.39.57.28,1,.75,1.58,1a2,2,0,0,1,.57.4,1.66,1.66,0,0,0,.34.25,5.35,5.35,0,0,0,.89.51,3.39,3.39,0,0,1,.9.58.15.15,0,0,0,.09,0,1.55,1.55,0,0,1,.74.44c.2.19.45.32.65.52a5,5,0,0,0,.52.38c.17.13.33.27.51.39a2.16,2.16,0,0,0,.59.33c.24.07.28.32.5.4a1.16,1.16,0,0,0,.34.14.33.33,0,0,1,.18.1,1.7,1.7,0,0,0,.68.47.38.38,0,0,1,.22.15.84.84,0,0,0,.32.27c.16.1.28.26.45.35s.29.37.53.42.37.34.64.36c.09,0,.14.07.21.13a1.83,1.83,0,0,1,.49.43c.28,0,.39.3.63.38.23.39.72.45,1,.77a1.86,1.86,0,0,1,.81.66c.08.1.17.22.27.25s.35,0,.34.26c.12,0,.24,0,.28.1s.37.29.49.53.31.22.47.32.27.16.39.25l.63.55c.1.08.27.11.3.2s.3.24.4.41a.79.79,0,0,0,.53.33c.06,0,.1.1.15.15s.15.18.24.2c.26.07.41.27.62.4s.3.14.49,0,.21-.34.34-.48a2.54,2.54,0,0,0,.54-1,3.59,3.59,0,0,1,.21-.38.7.7,0,0,0,.11-.23.55.55,0,0,1,.41-.51l-.08.05s0,0,0,.08l0,0a.34.34,0,0,0,0-.1,4.05,4.05,0,0,0,.52-1,.41.41,0,0,0,.05.09h0l-.11-.09.3-.11c0-.29.06-.37.23-.5s.15-.07.18-.17c.13-.35.44-.61.55-1a.76.76,0,0,1,.2-.25,2.91,2.91,0,0,0,.33-.26c.08-.1.1-.26.19-.35a7,7,0,0,1,.9-.9s0,0,0,0,0,0,0,0Z"/><path class="cls-25" d="M152.52,87.15c0-.09,0-.22.07-.25s.17-.4.41-.47c.05,0,.09-.15.1-.23a.34.34,0,0,1,.15-.27,1.12,1.12,0,0,0,.32-.39c.06-.13.25-.19.38-.28a1.51,1.51,0,0,1,.58-.93c.17-.18.32-.43.63-.46.05,0,.09-.12.15-.2l-.14,0s0-.06,0-.08c.18-.27.37-.54.75-.52,0,0-.08.06,0,0h0a2.48,2.48,0,0,0,0-.27s0-.08,0-.1c.31-.34.38-.85.75-1.15s.32-.46.53-.65a1.15,1.15,0,0,0,.45-.66l.94-1.11.57-.69c.15,0,.08.14.16.17s.16-.11.07-.32a.73.73,0,0,1,.05-.09,7.53,7.53,0,0,0,.81-1.05l.27-.33.63-.74a8.63,8.63,0,0,1,1.14-1.28.7.7,0,0,0,.13-.17,3.73,3.73,0,0,1,.69-.89,4.83,4.83,0,0,0,.41-.49c.3-.4.63-.78,1-1.16a.88.88,0,0,1,.27-.19.49.49,0,0,0,.28-.37.25.25,0,0,1,.09-.19c.27-.15.3-.48.51-.68s.37-.45.56-.66a10.49,10.49,0,0,1,1-1.18c.07-.07.11-.18.18-.26s.14-.25.24-.29.33-.1.38-.33.21-.29.29-.45a2.44,2.44,0,0,1,.58-.77,4.32,4.32,0,0,0,.76-.89,2.92,2.92,0,0,1,.28-.32c.14-.19.29-.37.44-.55.32-.4.54-.89,1.05-1.11,0,0,0-.15.05-.19a1.3,1.3,0,0,0,.41-.46,3.84,3.84,0,0,1,.32-.5l.13-.17,0,0,0,0-.08,0,.71-.78c.13,0,.26.09.3-.08a.33.33,0,0,1,.27-.28.46.46,0,0,0-.07.07s0,0,0,.08.07,0,.08,0a.1.1,0,0,0,0-.08s0-.06,0-.08.22-.08.31-.05a2.49,2.49,0,0,0,1.21-.15.84.84,0,0,0,.36-.1,1.39,1.39,0,0,1,.81-.25,4.71,4.71,0,0,0,.62-.16,1.11,1.11,0,0,1,.78-.12.2.2,0,0,0,.15,0,.87.87,0,0,1,.72,0l.66-.37.23.14a5.27,5.27,0,0,1,1-.2c.15,0,.24-.22.44-.1s.26,0,.39-.11c.28.12.5-.11.76-.14a6.82,6.82,0,0,1,.79-.1.54.54,0,0,0,.35-.11c.14-.1.18,0,.28.09a1.47,1.47,0,0,1,1-.36,9.26,9.26,0,0,0,1.39-.17,6.1,6.1,0,0,0,.91-.31.53.53,0,0,1,.2,0,1.08,1.08,0,0,0,.89-.19l.29.13a.74.74,0,0,1,.68-.21l.3.08c.12-.24.4-.06.56-.23a1.79,1.79,0,0,1,.46-.25c0-.11,0-.23-.05-.33l.31-.51c0-.06.05-.15.11-.18a1.08,1.08,0,0,0,.44-.65c.07-.25.29-.4.36-.65a2.28,2.28,0,0,1,.4-.64c.58-.77,1.17-1.54,1.77-2.3a1.37,1.37,0,0,1,.38-.38c.27-.17.37-.46.57-.68a3.4,3.4,0,0,0,.23-.3c.15-.19.33-.37.47-.58a10.32,10.32,0,0,1,1.12-1.17.68.68,0,0,1,.33-.18.81.81,0,0,0,.51-.24c.42-.3.87-.55,1.3-.83a2.35,2.35,0,0,0,.25-.19.48.48,0,0,1,.39-.15c.1-.09.22-.17.23-.33l.12.1s.05,0,.08-.05,0-.06-.06-.06l-.14,0-.15,0c-.11,0-.14.07-.13.17a.42.42,0,0,0,.07.13.72.72,0,0,0-.7-.28.86.86,0,0,1-.52-.08,1,1,0,0,0-.8-.1s-.08,0-.09,0c-.15-.19-.33,0-.49,0s-.19,0-.25-.11-.21.05-.3,0-.1-.13-.17-.18a.24.24,0,0,0-.19-.06c-.25.09-.41-.21-.65-.13-.15-.18-.46-.13-.54-.4,0,0,0-.05-.08-.06a1.33,1.33,0,0,1-.84-.83c-.08-.16-.15-.33-.22-.48.16-.27.26-.57.59-.72,0,.05,0,.09,0,.12a1,1,0,0,0,0,.17c.53-.25,1.08-.44,1.58-.74a.28.28,0,0,0,0,.09l.06,0-.07,0a1.9,1.9,0,0,1,.75-.06.36.36,0,0,0,.31,0,1.53,1.53,0,0,1,1.19-.18c.37,0,.74,0,1.11,0a.86.86,0,0,1,.16,0,1.65,1.65,0,0,0,.46.12c.16,0,.31-.12.46-.12a2,2,0,0,1,.5.14,1,1,0,0,1,.76-.07c.23,0,.45.11.68.15a2.6,2.6,0,0,1,1.43.71,1.59,1.59,0,0,0,.21.15c.06-.05.11-.07.13-.12a17.13,17.13,0,0,0,.74-1.56,10.86,10.86,0,0,1,1.15-2.61,2.4,2.4,0,0,1,.34-.42,4.93,4.93,0,0,0,.63-.74,5.72,5.72,0,0,0,.37-.46.69.69,0,0,1,.83-.28,2.53,2.53,0,0,1,.23.67,3.21,3.21,0,0,0-.42.64,4.3,4.3,0,0,1-.55.79,2.43,2.43,0,0,0-.33.56,3.72,3.72,0,0,1-.65,1.12.54.54,0,0,0-.11.18,13.69,13.69,0,0,1-.73,1.49,2,2,0,0,0-.12.5.67.67,0,0,0,.19-.09c.4-.3,1.32-.76,1.76-1a7.37,7.37,0,0,0,1.36-.85,4.58,4.58,0,0,1,1-.57c.12.12,0,.17,0,.22l-.91,1.08a.43.43,0,0,1-.12.11,18.76,18.76,0,0,1-1.72,1.19,6.5,6.5,0,0,0-.92.63,1.2,1.2,0,0,1-.53.22.67.67,0,0,0-.5.44c-.08.22-.16.44-.25.66a.55.55,0,0,0,0,.42,17.67,17.67,0,0,1,.5,1.76,1.91,1.91,0,0,1,.07.59A12.94,12.94,0,0,0,205,50.9a1.22,1.22,0,0,1,0,.33c0,.07-.05.15,0,.21.2.57-.1,1.09-.13,1.64a.42.42,0,0,1,0,.16c-.28.3-.21.76-.49,1-.09.11-.16.23-.25.34a.94.94,0,0,1-.83.28,2.47,2.47,0,0,1-.53-.1.16.16,0,0,1-.09-.05,4.06,4.06,0,0,1-.78-.93c-.09-.21-.28-.35-.31-.61s-.15-.43-.18-.66c0,0-.05-.05-.08-.07a2,2,0,0,0-.34.55.84.84,0,0,1-.16.27c-.17.17-.35.34-.54.5a.88.88,0,0,0-.29.44,1,1,0,0,1-.6.68c0,.44-.36.68-.67.92s-.63.58-1,.82a3.18,3.18,0,0,0-.52.44,4.93,4.93,0,0,1-1,.8,2.09,2.09,0,0,0-.55.48,2,2,0,0,1-.66.55,2.8,2.8,0,0,0-.35.25c-.29.18-.48.47-.82.59s-.55.37-.87.48a.35.35,0,0,0-.18.58,1.09,1.09,0,0,1,.18.65.69.69,0,0,0,.09.31.57.57,0,0,1,.06.36.45.45,0,0,0,.06.42c.08.12,0,.25,0,.35s.16.19.21.3a.81.81,0,0,1,.05.31,1.24,1.24,0,0,0,.18.77.91.91,0,0,1,0,.74.86.86,0,0,0,.1.76,1,1,0,0,1,.07.46l0,.81,0,0,0,0,.08.06a.27.27,0,0,0-.12.36,4.91,4.91,0,0,1,0,1.87l-.06.07.05-.08a.84.84,0,0,1,0,.52,3,3,0,0,0-.06.42,6.94,6.94,0,0,1,0,.79,2.34,2.34,0,0,0,0,.79.53.53,0,0,1,0,.41.15.15,0,0,0,0,.14c.08.15,0,.29,0,.43a.8.8,0,0,0-.05.26,6,6,0,0,1,.08.73,1.29,1.29,0,0,0,.12.68.63.63,0,0,1,0,.52,1.78,1.78,0,0,0,0,1.27,1.12,1.12,0,0,1,.11.73,1.64,1.64,0,0,1-.28.72,3,3,0,0,0-.37.66.92.92,0,0,1-.24.34s-.13.09-.15.15a3,3,0,0,1-.56.87,3.8,3.8,0,0,1-.35.57,1.82,1.82,0,0,0-.27.58h0c-.07,0-.17.06-.15.19v0a.91.91,0,0,1-.13.3c-.32.31-.47.76-.8,1.06a6.13,6.13,0,0,0-.83,1.12c-.21.33-.49.6-.69.94-.07.11-.28,0-.25.2-.19.1-.25.3-.36.48s-.26.3-.35.47a.67.67,0,0,1-.21.23c-.07,0-.2.14-.19.17.07.23-.28.3-.18.53a.73.73,0,0,0-.05-.09s0,0-.06,0l0,0,.07.07c-.12.1-.28.17-.35.3a1.07,1.07,0,0,1-.25.27.43.43,0,0,0-.15.15c-.23.4-.53.75-.77,1.14-.09.15-.27.18-.33.34a1.08,1.08,0,0,1-.21.43c-.26.22-.41.53-.66.77a3,3,0,0,0-.92,1.3c0,.08-.12.13-.18.19s-.09.07-.1.11a2.44,2.44,0,0,1-.77,1.07,12.36,12.36,0,0,0-.95,1.24c-.13.19-.22.4-.34.6s-.07.12-.1.12c-.25,0-.25.22-.35.34a6.94,6.94,0,0,1-.6.74,1.2,1.2,0,0,0-.33.53,2.78,2.78,0,0,1-.54.79,5.75,5.75,0,0,0-.54.73,4.83,4.83,0,0,1-.62.81c-.18.18-.19.52-.51.57,0,0,0,.1-.05.15a2,2,0,0,1-.22.37,9.91,9.91,0,0,0-1.06,1.58c-.1.18-.26.34-.38.52-.3.48-.58,1-.88,1.46a1.37,1.37,0,0,1-.37.46c-.14.11-.15.3-.29.43a.94.94,0,0,0-.41.82,1,1,0,0,0-.23.14.25.25,0,0,1-.23.11,3,3,0,0,1-.74,0c-.14,0-.37-.06-.4-.3,0,0-.07-.08-.11-.08a.27.27,0,0,1-.25-.18.4.4,0,0,0-.48-.2c-.05-.24-.13-.45-.44-.43a.32.32,0,0,1-.3-.19c0-.08-.17-.11-.26-.16l-.42-.3c0-.28-.37-.31-.45-.55,0,0,0,0,0,0-.53-.13-.78-.66-1.24-.89-.15-.07-.24-.29-.39-.36s-.3-.38-.57-.47a2.2,2.2,0,0,1-.63-.48c-.2-.16-.37-.34-.57-.5s-.36-.26-.54-.4c-.38-.27-.74-.56-1.12-.83a4.53,4.53,0,0,0-.61-.34.57.57,0,0,1-.32-.27.8.8,0,0,0-.46-.44,3.89,3.89,0,0,1-.89-.55,7.71,7.71,0,0,1-.82-.59c-.31-.24-.63-.47-.92-.73s-.38-.12-.48-.32-.29-.17-.42-.31-.33-.13-.48-.23a4.5,4.5,0,0,1-.5-.39c-.19-.16-.5-.21-.6-.49,0,0-.05,0-.08-.07-.2-.14-.48-.16-.56-.45a1.41,1.41,0,0,1-.54-.4s-.06-.07-.08-.07c-.28.1-.34-.2-.53-.28a2.3,2.3,0,0,1-.49-.32c-.17-.13-.31-.3-.48-.44s-.38-.26-.57-.4a13.82,13.82,0,0,1-1.32-.82,11,11,0,0,1-1.47-1.42,1.67,1.67,0,0,0-.39-.36.37.37,0,0,1-.19-.34,1.17,1.17,0,0,1,.37-1,2.32,2.32,0,0,0,.29-.39.43.43,0,0,1,.26-.16l-.06.06h0ZM187.94,63a.41.41,0,0,0,.05-.09s0,0,0,0-.07,0-.06,0,0,.06.05.09-.18.09-.12.2.19.1.35,0Zm15.89-14.89c-.35.11-.39.16-.42.5,0,.1,0,.26-.09.29s-.1.29-.19.41c.09.54-.3,1-.32,1.49a.88.88,0,0,0-.1.87,2.71,2.71,0,0,1,.09.41.61.61,0,0,1,0,.27c0,.07-.11.12-.16.18a1.63,1.63,0,0,1,.34.84c.07.45.22.52.67.4h.05l-.11.08h0l.11-.09a3.89,3.89,0,0,1,.09-.47c0-.12.24-.12.19-.32s.2-.23.26-.33c0-.3,0-.57,0-.84s0-.79,0-1.19-.08-.79-.11-1.18,0-.89,0-1.38l-.41-.29c.1.18.15.27.19.36Zm-3-1.54.14,0,.69,0a.33.33,0,0,0,.13-.07,1,1,0,0,1,.84-.26s.06,0,.09-.06-.09-.27.07-.38a.5.5,0,0,0,.16-.36,2,2,0,0,0-1.18-.19.26.26,0,0,1-.21,0,.73.73,0,0,0-.58,0,.27.27,0,0,1-.15,0,1.08,1.08,0,0,0-.64,0s-.08,0-.13,0-.14-.07-.19-.05a1.73,1.73,0,0,1-.64,0,3.5,3.5,0,0,0-.62.15.45.45,0,0,1-.16,0,3.61,3.61,0,0,0-1.63.12s-.12,0-.19,0,0,.18-.06.27h-.29c-.25.18-.42.34-.36.61a.36.36,0,0,0,0-.09l-.07,0s0,.06,0,.07.06,0,.09,0,.13.14.27.13a2.35,2.35,0,0,1,.75,0,10,10,0,0,0,1.55.11c.32,0,.65-.05,1,0s.5-.09.73.09C200.41,46.36,200.62,46.47,200.83,46.52ZM200,48.68c-.09,0-.17.15-.27.16a.5.5,0,0,0-.37.2,4.51,4.51,0,0,1-.87.71,4,4,0,0,1-1.1.77,1.33,1.33,0,0,0-.29.25,3.22,3.22,0,0,0-.28.24,7.08,7.08,0,0,0-1,1.08,5.22,5.22,0,0,1-.67.82,3.47,3.47,0,0,0-.29.38,2.22,2.22,0,0,1-.63.73,1.6,1.6,0,0,0-.49.64c-.1.2-.11.46-.38.53a.13.13,0,0,0,0,.09,3.17,3.17,0,0,1-.56,1,1.81,1.81,0,0,1-.28.45,1.27,1.27,0,0,0-.51.67c0,.11-.15.2-.22.29a1,1,0,0,0-.14.16,1.17,1.17,0,0,0-.17.38c0,.17-.25.2-.2.42s-.07.24-.1.34l.8.52c.12-.07.24-.19.36-.2a.65.65,0,0,0,.42-.18l.35-.32a4.52,4.52,0,0,1,.56-.51,8.21,8.21,0,0,0,.86-.7c.68-.59,1.38-1.16,2.06-1.75a5,5,0,0,0,.74-.72c.21-.26.6-.39.63-.8,0,0,0-.06.06-.09l.4-.51a13.19,13.19,0,0,1,1.12-1.44.37.37,0,0,0,.11-.19,2.61,2.61,0,0,1,.55-1,3.62,3.62,0,0,0,.44-.61c.3-.74.82-1.35,1.16-2.06a.84.84,0,0,0,.13-.67c-.19-.05-.3.08-.44.16l-.39.25a2.52,2.52,0,0,1-.42.24,3.09,3.09,0,0,1-.46.12l-.19,0A.58.58,0,0,1,200,48.68Zm-10,15c0,.23-.07.45-.11.68a.26.26,0,0,1-.09.14,1.87,1.87,0,0,0-.32.42,1,1,0,0,1-.42.32c-.26.1-.54.13-.8.22a.47.47,0,0,1-.54-.13l-.27-.21c-.18-.11-.28-.34-.46-.43s-.25-.33-.35-.5c-.25-.45-.25-.45-.27-1.23-.15-.16,0-.34-.05-.51s.15-.39.2-.59.2-.19.33-.25l-.06.17H187s0,0,.05,0l.73-.31.22.2c.17-.1.32-.18.38-.38.16-.47.34-.93.52-1.42l-.26-.12c-.26-.13-.52.2-.79,0,0,0-.07,0-.09,0s-.43.09-.57.27a.24.24,0,0,1-.24.08,1.06,1.06,0,0,0-.65.17.44.44,0,0,1-.19.07,6.38,6.38,0,0,0-1.51.2.28.28,0,0,1-.22,0c-.2-.13-.34,0-.53.06a1.55,1.55,0,0,1-1,0,.91.91,0,0,1-.74.25.47.47,0,0,0-.39,0,.8.8,0,0,1-.25.11,1.39,1.39,0,0,0-.57.09,1.68,1.68,0,0,1-.64.06.73.73,0,0,0-.45.09c-.13.08-.34,0-.52.05a.09.09,0,0,0-.08,0,.63.63,0,0,1-.49.19,6.75,6.75,0,0,1-1.27.12.82.82,0,0,0-.22,0,14.52,14.52,0,0,1-2,.28,1.52,1.52,0,0,0-.65.22c0,.05.06.1.08.1.27,0,.43.15.61.3.44.37.88.75,1.35,1.09s.95.63,1.44.94a4.3,4.3,0,0,1,.48.24c.41.35.82.71,1.25,1,.6.45,1.14,1,1.74,1.44.85.65,1.65,1.34,2.47,2a18.24,18.24,0,0,0,2,1.52c.18.11.34.26.52.39a7.66,7.66,0,0,1,.66.45c1.14,1,2.27,1.9,3.42,2.83l1.68,1.35a.73.73,0,0,0,.47.21.87.87,0,0,0-.14-.74c-.14-.24-.34-.47-.18-.79,0,0,0-.14,0-.21a2.15,2.15,0,0,1-.05-.8.25.25,0,0,0,0-.21c-.16-.26.1-.57-.09-.83,0,0,0-.13.07-.18a.41.41,0,0,0,.1-.3,1.18,1.18,0,0,1,.05-.37,1.13,1.13,0,0,0,0-.41,2.65,2.65,0,0,1,.05-1.22c-.06-.09-.13-.17-.18-.25s.09-.32.14-.48c-.19-.2.07-.5-.15-.7,0-.25.08-.49.1-.74a1.77,1.77,0,0,0,0-.32,2.3,2.3,0,0,1,0-.37c0-.29.06-.57,0-.86a5.9,5.9,0,0,0-.11-.83,2.8,2.8,0,0,0-.09-.59,1.11,1.11,0,0,1,0-.74.3.3,0,0,0,0-.21,1.55,1.55,0,0,0-.15-.46c-.1-.17.08-.32,0-.51a1.12,1.12,0,0,1-.14-.67,2.63,2.63,0,0,0-.12-.84,1,1,0,0,0-.39-.67c-.09-.07-.2-.24-.17-.32.09-.25-.13-.35-.2-.52a.27.27,0,0,0-.29-.11.61.61,0,0,0-.51.48,2,2,0,0,1-.22.55,3,3,0,0,0-.38,1l0,0c.26.18.44.38.29.72a.31.31,0,0,0,0,.21,1.67,1.67,0,0,1,.07.86l-.18.15,0,0Zm-11.6,32.47a.57.57,0,0,1,.18-.44,1.55,1.55,0,0,0,.32-.48,2.43,2.43,0,0,0-.43-.42,5.56,5.56,0,0,1-1.17-1.1,6.12,6.12,0,0,0-1-.94,7.28,7.28,0,0,1-.81-.63,5.38,5.38,0,0,0-.65-.53l-.17-.14a3.7,3.7,0,0,0-1.49-.82,4.07,4.07,0,0,1-1.4-.69l-1.62-1.35a.43.43,0,0,1-.14-.16c-.33-.56-.91-.87-1.27-1.39-.48-.29-.79-.79-1.34-1,0,0,0-.09,0-.14a1.28,1.28,0,0,1,.75.28l1.72,1.23a2.42,2.42,0,0,1,.57.58,2.07,2.07,0,0,0,.47.51,13.67,13.67,0,0,1,1.25,1,1,1,0,0,0,.31.21c.62.24,1.23.52,1.82.81a2.69,2.69,0,0,1,.46.28c.34.27.66.56,1,.83s.42.29.59.47a7.79,7.79,0,0,0,1,.86,1.58,1.58,0,0,1,.54.58.58.58,0,0,0,.24.27,2.2,2.2,0,0,1,.51.4,3.07,3.07,0,0,0,.62.47,1.39,1.39,0,0,0,.72-.67c0-.07.13-.12.19-.18a.08.08,0,0,0,0,0l-.19,0a2.36,2.36,0,0,0,.32-.45.87.87,0,0,1,.54-.55c.11,0,.07-.15,0-.24v0c.05,0,.14-.07.16-.13.1-.24.17-.52.5-.57,0,0,0-.06,0-.09s0-.2.11-.28a6.86,6.86,0,0,0,.56-.65,1.57,1.57,0,0,1,.58-.62c0-.22.2-.28.33-.4s.2-.28.32-.4a1.72,1.72,0,0,0,.44-.8c.05-.14.08-.34.27-.37s.16-.12.21-.23a5.43,5.43,0,0,1,.48-.7c.36-.5.75-1,1.08-1.48a4.4,4.4,0,0,1,.77-.89,3.47,3.47,0,0,0,.25-.29c.36-.46.71-.94,1.08-1.39s.71-.82,1.07-1.21c.16-.17.36-.29.57-.47a1.4,1.4,0,0,1,.61-.85,1.38,1.38,0,0,0,.44-.6,1.06,1.06,0,0,1,.18-.33c.35-.46.7-.92,1.06-1.37a1.56,1.56,0,0,0,.33-.67c.06-.26.08-.53.11-.75l-.5-.45c-.46-.4-.91-.81-1.38-1.2a7.77,7.77,0,0,1-1-.87,2.17,2.17,0,0,0-.29-.24,11.33,11.33,0,0,1-1.77-1.47,1.12,1.12,0,0,0-.22-.16l-.74-.53a3.81,3.81,0,0,0-.58-.41,8.16,8.16,0,0,1-1.46-1.09l-.89-.7-.33-.28c-.18-.17-.36-.36-.55-.51-.66-.53-1.33-1-1.95-1.62a3.48,3.48,0,0,0-.39-.38l-.43-.31c-.14-.12-.36-.17-.43-.31s-.35-.18-.37-.36-.35-.1-.31-.34c0,0-.08-.06-.12-.08s-.25-.13-.37-.21-.41-.3-.63-.42a10.41,10.41,0,0,1-2-1.33,3.26,3.26,0,0,0-1-.67.93.93,0,0,1-.56-.38.37.37,0,0,0-.46-.13l-.39.42c-.61.74-1.2,1.48-1.82,2.21s-1.29,1.79-1.94,2.68a6.84,6.84,0,0,1-1.31,1.76s0,0,0,0c-.12.31-.42.47-.59.75a7.25,7.25,0,0,1-.62.75,1.64,1.64,0,0,0-.26.33.69.69,0,0,1-.4.33c-.06,0-.16,0-.17.1-.06.26-.28.4-.44.59s-.14.14-.14.22c0,.23-.19.34-.31.48l-.27.32c-.26.36-.55.7-.82,1.06-.09.13-.32.12-.29.35s-.31.12-.28.34a1.38,1.38,0,0,0-.43.6c-.29,0-.31.36-.52.48,0,0-.12.06-.12.1,0,.27-.25.31-.39.46s-.49.42-.51.78a.3.3,0,0,1-.1.18l-.62.72a4.5,4.5,0,0,1-.58.7c-.27.21-.33.56-.6.74,0,0,0,.14,0,.22a4.3,4.3,0,0,1,1.41.88c.34.3.69.59,1,.87a2.3,2.3,0,0,0,.37.23,3.75,3.75,0,0,1,1.13.8.59.59,0,0,0,.41.24.87.87,0,0,1,.47.25c.47.37.89.79,1.38,1.14a12.94,12.94,0,0,1,1,.84,2.18,2.18,0,0,1,.24.27c-.25.13-.25.13-.4,0l-1-.77a2.31,2.31,0,0,1-.2-.24l-.49-.42a1.23,1.23,0,0,1-.61-.42.73.73,0,0,0-.49-.3.82.82,0,0,1-.51-.3,2.59,2.59,0,0,0-.69-.5,3.21,3.21,0,0,1-1.17-.86.16.16,0,0,0-.08-.06,4.39,4.39,0,0,1-1-.81,8.33,8.33,0,0,0-1.17-.68c-.18.35-.44.59-.63.9a10.72,10.72,0,0,1-.9,1.14c-.13.16-.23.35-.36.52s-.35.31-.43.5a4,4,0,0,1-.78,1,2.46,2.46,0,0,0-.64,1c0,.13-.09.32-.32.31,0,0-.11.08-.14.14a3.8,3.8,0,0,1-.54.66,2.07,2.07,0,0,0-.46.71,1.26,1.26,0,0,1-.23.3l-.12.17a2,2,0,0,0-.28.49,1.29,1.29,0,0,1-.33.52.66.66,0,0,0-.07.26c.13.14.23.32.37.39.57.28,1,.75,1.58,1a2,2,0,0,1,.57.4,1.66,1.66,0,0,0,.34.25,5.35,5.35,0,0,0,.89.51,3.39,3.39,0,0,1,.9.58.15.15,0,0,0,.09,0,1.55,1.55,0,0,1,.74.44c.2.19.45.32.65.52a5,5,0,0,0,.52.38c.17.13.33.27.51.39a2.16,2.16,0,0,0,.59.33c.24.07.28.32.5.4a1.16,1.16,0,0,0,.34.14.33.33,0,0,1,.18.1,1.7,1.7,0,0,0,.68.47.38.38,0,0,1,.22.15.84.84,0,0,0,.32.27c.16.1.28.26.45.35s.29.37.53.42.37.34.64.36c.09,0,.14.07.21.13a1.83,1.83,0,0,1,.49.43c.28,0,.39.3.63.38.23.39.72.45,1,.77a1.86,1.86,0,0,1,.81.66c.08.1.17.22.27.25s.35,0,.34.26c.12,0,.24,0,.28.1s.37.29.49.53.31.22.47.32.27.16.39.25l.63.55c.1.08.27.11.3.2s.3.24.4.41a.79.79,0,0,0,.53.33c.06,0,.1.1.15.15s.15.18.24.2c.26.07.41.27.62.4s.3.14.49,0,.21-.34.34-.48a2.54,2.54,0,0,0,.54-1,3.59,3.59,0,0,1,.21-.38.7.7,0,0,0,.11-.23.55.55,0,0,1,.41-.51l-.08.05s0,0,0,.08l0,0a.34.34,0,0,0,0-.1,4.05,4.05,0,0,0,.52-1,.41.41,0,0,0,.05.09h0l-.11-.09.3-.11c0-.29.06-.37.23-.5s.15-.07.18-.17c.13-.35.44-.61.55-1a.76.76,0,0,1,.2-.25,2.91,2.91,0,0,0,.33-.26c.08-.1.1-.26.19-.35a7,7,0,0,1,.9-.9s0,0,0,0,0,0,0,0ZM189,64.46a2.66,2.66,0,0,0,.59-.71.57.57,0,0,0,.08-.25,1.18,1.18,0,0,0,0-.46c-.06-.2-.28-.1-.42-.18s-.31,0-.47.08-.43.55-.82.57c-.05,0-.1.1-.13.16a2.6,2.6,0,0,0-.13.24C187.94,64.4,188.14,64.49,189,64.46Zm-16.24-2.25.05,0,.15-.19,0,0Zm-12,14.66a.92.92,0,0,0,.16-.13s0,0,0-.08h0Zm30.15-20h0a.24.24,0,0,0,0,.08l.07,0S190.9,56.9,190.89,56.88Zm-1.35,4.6v0l0,0Zm-6.87,29.07v0l0,0Zm7.59-9.49,0,0-.05,0a.08.08,0,0,0,0,0Zm-15.72,20.73h0s0,0,0,0h0S174.53,101.8,174.54,101.79Zm11.19-15.2,0-.07,0,0Zm-.47.7,0,0-.05,0,0,0S185.25,87.28,185.26,87.29Z"/><path class="cls-25" d="M191.59,80.87c0,.14,0,.18-.14.17v0l.15-.19Z"/><path class="cls-25" d="M200.83,46.52c-.06-.07,0-.13,0-.16a.71.71,0,0,1,.14,0l0,.13Z"/><path class="cls-25" d="M167.22,76.73a.53.53,0,0,0,.59-.14.32.32,0,0,1,.17-.11.7.7,0,0,0,.43-.21.42.42,0,0,1,.19-.09,1.76,1.76,0,0,0,1-.45s.1-.08.14-.07c.25,0,.38-.17.56-.27s.24-.19.36,0a.38.38,0,0,0,.18-.07,3.2,3.2,0,0,0,.25-.27c.12.08.18,0,.25-.08s.49-.12.54-.44c.18-.15.35-.3.54-.44a6.8,6.8,0,0,1,.6-.46,1.89,1.89,0,0,1,.25-.11,3.87,3.87,0,0,0,2-2.14.6.6,0,0,0-.23-.75l-.05,0-.51-.27c-.17,0-.33,0-.49,0s-.29,0-.43,0a1.07,1.07,0,0,0-.84.38,8.68,8.68,0,0,0-.92.9.38.38,0,0,0-.1.12c-.19.38-.19.39-.47.56l-.28-.12a.51.51,0,0,1-.34-.54,1.5,1.5,0,0,1,.32-.79,8,8,0,0,0,.6-.71c.09-.13.23,0,.31-.12s.15-.24.25-.27l.43-.16a5.74,5.74,0,0,1,.91-.31c.1,0,.25-.06.31,0a.65.65,0,0,0,.7.06c.36.14.65.28,1,.37a.89.89,0,0,1,.54.42c.17.31.29.65.49,1s-.06.4.12.55l-.17.45-.34.72c-.15.3-.27.61-.64.74a1.08,1.08,0,0,0-.4.42.73.73,0,0,1-.5.36.06.06,0,0,1,0,0l0,0-.06,0a2.27,2.27,0,0,0-.66.45,6.37,6.37,0,0,1-.66.45l-.26.2,0,0s0,0,0,0a.44.44,0,0,0,0-.1l-.08,0c-.13.11-.05.32-.23.41-.33.15-.57.44-.94.53a4.4,4.4,0,0,0-.89.34c-.1,0-.16.19-.26.25s-.21,0-.29.11-.18.18-.26.17-.2.09-.25.21-.07.08-.11.13l-.52,0c.13.11.19.19.27.21a3.7,3.7,0,0,1,1.18.73c.08.07.24.09.27.16.1.28.35.45.51.69a.67.67,0,0,1,.07.51,2,2,0,0,0,0,.42s0,.13,0,.15c-.2.16-.17.38-.17.6s-.22.34-.35.53c-.12-.19-.27-.3-.47-.16-.15-.08-.11-.31-.33-.33s-.18-.14-.16-.33a1.68,1.68,0,0,0,0-.89s0-.12,0-.14c-.17-.08-.17-.26-.23-.4s-.14-.43-.43-.4c-.18-.19-.46-.18-.66-.34a.31.31,0,0,0-.2-.07c-.24.07-.47-.09-.68,0-.45.09-.84-.18-1.3-.13-.07-.13-.15-.24-.24-.39l-.29-.08.18-.64a6.18,6.18,0,0,1,1.22-.38.43.43,0,0,0,0,.07l0-.06Zm2.26.49,0,.08.06,0-.06-.07Zm3-6.44h0v0h.06Z"/><path class="cls-25" d="M176.23,75.13c.06.05.1.1.13.1a.17.17,0,0,0,.14-.06c.16-.28.49-.33.7-.54a.73.73,0,0,1,.58-.23.8.8,0,0,0,.3-.06,1.43,1.43,0,0,1,.93.13c.18,0,.08.31.27.37a.64.64,0,0,1,.37.3,2.74,2.74,0,0,0,.23.36,1.81,1.81,0,0,1,.12,1.31,1.07,1.07,0,0,1-.23.54c-.11.12-.11.33-.17.5s-.1.31-.16.46a.21.21,0,0,1-.2.15c-.07,0-.14,0-.13.13s-.12.32-.24.45-.22.28-.33.42-.1.17-.18.2c-.31.11-.43.4-.63.62a4.65,4.65,0,0,1-1.19,1.06,6.26,6.26,0,0,0-.6.45c-.23.17-.53.21-.74.42s-.25.05-.36,0a2.48,2.48,0,0,1-.74-.25,4.36,4.36,0,0,1-.64-.58.73.73,0,0,1-.05-.09c-.11-.16-.41-.24-.24-.52a1,1,0,0,1,0-.57c.06-.38.22-.72.26-1.1a1,1,0,0,1,.39-.68,1,1,0,0,0,.33-.53,1.55,1.55,0,0,1,.38-.7c.12-.1.29-.14.39-.26s.08-.28.15-.4a8.25,8.25,0,0,1,.57-.84A6.51,6.51,0,0,1,176.23,75.13Zm2.3.23c-.09.11-.18.23-.28.33a.64.64,0,0,1-.22.14,9,9,0,0,0-1,.42,1.79,1.79,0,0,0-.77.82,1.81,1.81,0,0,1-.44.71c0,.2-.27.25-.19.46a2,2,0,0,0-.3.43,1.86,1.86,0,0,1-.48.74.27.27,0,0,0-.06.24c.06.13.07.23-.05.33s-.1.3-.11.46,0,.28,0,.41a2.57,2.57,0,0,0,.39,0,1.37,1.37,0,0,0,.42-.07c.35-.15.68-.33,1-.5,0-.12-.07-.28.16-.23s.12-.05.16-.12a4.79,4.79,0,0,1,.7-.86,8.16,8.16,0,0,0,1-1.27,1.39,1.39,0,0,0,.28-.46,1,1,0,0,1,.35-.56,2.16,2.16,0,0,1,0-1Z"/><path class="cls-25" d="M182.13,83.68,182,84a.79.79,0,0,1-.43,0,1,1,0,0,0-1.23.37,2.9,2.9,0,0,0-.25.36c-.15.26-.29.53-.45.83.35.31.63.7,1.16.72.07-.09.15-.16.21-.25a11.51,11.51,0,0,1,1.42-1.76.49.49,0,0,1,.8-.06,2.9,2.9,0,0,1,.43.55c.07.1,0,.21,0,.31a.2.2,0,0,1-.28,0c-.15-.13-.29-.27-.47-.44a1.6,1.6,0,0,1-.16.27l-.53.61a4.31,4.31,0,0,0-.74,1.2,2.16,2.16,0,0,0,.67.53.4.4,0,0,1,.24.46,1.32,1.32,0,0,1-1.32-.25c-.05,0-.1,0-.11.06a13.44,13.44,0,0,1-1.37,1.81c-.18.22-.38.43-.56.66a.49.49,0,0,1-.7.12c0-.07,0-.17-.07-.31a3.74,3.74,0,0,1,.32-.4c.56-.56,1-1.24,1.53-1.81a1,1,0,0,0,.2-.37.28.28,0,0,0-.06-.25c-.29-.26-.61-.5-.92-.75a.37.37,0,0,0-.14,0c-.21,0-.29.21-.38.37a10.84,10.84,0,0,1-.93,1.32l-.64.78a.36.36,0,0,1-.31.18.42.42,0,0,1-.42-.2.35.35,0,0,1,.07-.4,5.08,5.08,0,0,1,.41-.51,5.67,5.67,0,0,0,1-1.36c.1-.25.35-.41.43-.69-.12-.22-.34-.31-.5-.49l-.5.28a1.34,1.34,0,0,1-1.46-.17.69.69,0,0,1-.28-.57,7,7,0,0,1,.07-.8.65.65,0,0,1,.17-.27,2.67,2.67,0,0,1,.32-.43c.32-.31.6-.68,1.09-.73.11,0,.21-.06.32-.08a1.48,1.48,0,0,1,.42,0,.73.73,0,0,1,.64.9,2.32,2.32,0,0,1-.21.89,3.86,3.86,0,0,0-.17.43l.66.35c.19-.16.38-.28.4-.56,0-.11.15-.22.24-.33l.64-.72a.56.56,0,0,1,.44-.19c.3,0,.61.08.91.13A1.13,1.13,0,0,1,182.13,83.68Zm-3.94-.75a2.8,2.8,0,0,1-.45.06,1.52,1.52,0,0,0-1.14.64.82.82,0,0,0-.25.84,2.43,2.43,0,0,1,0,.27.33.33,0,0,0,.29.33.62.62,0,0,0,.67-.25c.12-.15.2-.33.41-.41,0,0,.07-.08.1-.12A2.48,2.48,0,0,0,178.19,82.93Z"/><path class="cls-25" d="M159.47,86.81c-.16.15-.26.2-.28.26a.91.91,0,0,1-.52.65,1.72,1.72,0,0,0-.4.36c-.16.17-.32.33-.5.49a.68.68,0,0,1-.8.13.34.34,0,0,1,0-.4,5.6,5.6,0,0,1,.77-1,6.72,6.72,0,0,0,.63-.78c.21-.25.44-.48.63-.74a6.45,6.45,0,0,1,.79-.94s.05-.13.08-.2a.3.3,0,0,1,.38-.26s.11-.08.19-.15l.43.23a1,1,0,0,1,0,.81,3.8,3.8,0,0,0-.27,1.13,4.22,4.22,0,0,0-.06,1.12,2.4,2.4,0,0,1,0,.75,2.76,2.76,0,0,0,0,.29,2.12,2.12,0,0,0,.68-.73,2.92,2.92,0,0,1,.56-.69.76.76,0,0,0,.27-.35c.08-.15.13-.34.35-.38.05,0,.08-.1.12-.15l.19-.37.74-.24.5.42c.16.34-.11.56-.3.81,0,0-.06,0-.09.06a3.84,3.84,0,0,0-1,1c-.07.07-.12.17-.2.25a3.9,3.9,0,0,0-.72,1,10,10,0,0,1-.83,1.11c-.11.15-.23.28-.35.42a2.5,2.5,0,0,1-.22.24.71.71,0,0,1-1.2-.21,2.69,2.69,0,0,1-.05-1.54c0-.18.09-.35.12-.53a8.75,8.75,0,0,1,.3-1.42A2,2,0,0,0,159.47,86.81Zm-.29,2.71,0,0h-.05Z"/><path class="cls-25" d="M168.08,93.11a1.88,1.88,0,0,1,.66-.43.44.44,0,0,0,.2-.18c.13-.24.38-.26.6-.3a.78.78,0,0,1,.49.18c.31.19.23.5.27.77a1.24,1.24,0,0,1-.05.42c0,.13-.1.25-.16.4a2.2,2.2,0,0,1,.21.09c.09.07.13.2.29.18a.43.43,0,0,0,.26-.17,5.78,5.78,0,0,1,.49-.5c.16-.13.41,0,.59-.18s.29,0,.43.11.18.28.08.44-.2.21-.29.32a3.45,3.45,0,0,1-.94.8.52.52,0,0,0-.21.23,3,3,0,0,1-.73.79,1.75,1.75,0,0,0-.32.29.72.72,0,0,1-.5.27,1.35,1.35,0,0,1-.69-.09.36.36,0,0,1-.15-.15.69.69,0,0,1-.06-.47,2.56,2.56,0,0,0,.1-.83,1.68,1.68,0,0,1,.08-.36c0-.14.05-.28.08-.42-.2-.12-.33,0-.45.09a4.31,4.31,0,0,0-.59.44,1.31,1.31,0,0,1-1.13.44l-.4-.21c-.09-.21-.19-.42,0-.65a5.52,5.52,0,0,1,.54-1.52c0-.06.11-.12.11-.18,0-.23.19-.28.31-.34.1-.4.18-.76.28-1.13a1.59,1.59,0,0,1,.65-.73l.22.11.17.09a.92.92,0,0,1-.11.88c-.16.23-.09.54-.29.75C168.19,92.6,168,92.83,168.08,93.11Z"/><path class="cls-25" d="M163.14,89.07a3.17,3.17,0,0,1,1.76-.56,2.26,2.26,0,0,1,.69,0,2.58,2.58,0,0,1,.59.26.58.58,0,0,1,.27.43,2.12,2.12,0,0,0,.23.71c.11.18,0,.36.08.52-.18.27-.15.61-.32.89a4.33,4.33,0,0,1-1,1.19,2,2,0,0,1-2.64.14,1.1,1.1,0,0,1-.14-.09,1.15,1.15,0,0,1-.56-1,4.73,4.73,0,0,0,0-.65c0-.1,0-.24.08-.36s.17-.47.27-.7c0-.07.06-.16.11-.18.24-.06.28-.32.47-.43h0l.24,0-.09-.16Zm.77,3h.16c.37-.07.57-.43.92-.54.06,0,.09-.1.15-.15s.11-.05.12-.09c0-.24.23-.4.31-.61a1.38,1.38,0,0,0,.05-1.09c-.25,0-.49,0-.72,0a1.59,1.59,0,0,0-.57.14,2.4,2.4,0,0,0-1,1.12.45.45,0,0,0,0,.46C163.58,91.55,163.74,91.81,163.91,92.06Z"/><path class="cls-25" d="M187.34,76.93c-.07.12-.08.19-.12.22a3.48,3.48,0,0,1-1,.64c-.4.14-.81.27-1.2.45s-.69.29-1,.46c-.11,0-.21.13-.32.19a1,1,0,0,1-.43.19,2.43,2.43,0,0,0-.56.18c-.15,0-.19.27-.39.25s-.24.15-.37.2c-.37.14-.74.26-1.13.37a.54.54,0,0,1-.48-.16.38.38,0,0,1,.08-.53,2.29,2.29,0,0,1,.72-.35l.77-.17s.08,0,.09,0c.12-.22.36-.22.55-.29a2,2,0,0,1,.81-.26s.08-.06.12-.09.08-.11.11-.11c.31.08.48-.18.72-.28l.35-.14c.49-.16,1-.36,1.46-.51A4.78,4.78,0,0,1,187.34,76.93Z"/><path class="cls-25" d="M183.58,77.32l-.33.11c-.15-.08-.3-.18-.46-.25s-.36-.18-.39-.41a.55.55,0,0,1-.09-.77,1.07,1.07,0,0,0,.06-.31.72.72,0,0,1,.46-.56c.21-.09.43-.18.65-.25a.76.76,0,0,1,.26,0l.59,0a.43.43,0,0,1,.38.26,1.29,1.29,0,0,1,.08,1,1.86,1.86,0,0,0-.1.25c-.31.72-.38.78-1.13.91Zm.77-1.57a3.18,3.18,0,0,0-.47,0,.67.67,0,0,0-.47.52.22.22,0,0,0,.22.25.55.55,0,0,0,.26,0A.86.86,0,0,0,184.35,75.75Z"/><path class="cls-25" d="M182.86,80.45c.21-.17.3-.48.58-.6a2.86,2.86,0,0,1,.6-.21,1.26,1.26,0,0,1,.58,0,2.88,2.88,0,0,1,.92.57c0,.15,0,.31,0,.47a.67.67,0,0,1-.27.65,3.25,3.25,0,0,1-1.05.65c-.1,0-.19.07-.29,0s-.14,0-.2,0a.66.66,0,0,1-.71-.21.72.72,0,0,1-.26-.79A3.19,3.19,0,0,0,182.86,80.45Zm2.27,0c-.1,0-.17.08-.23.07-.6-.08-.64-.08-1,.19s-.29.4,0,.57a.78.78,0,0,0,.4.08.74.74,0,0,0,.73-.61C185.05,80.65,185.09,80.57,185.13,80.44Zm.34.45,0,0,0,0Z"/><path class="cls-25" d="M172.09,96.82c.17-.25.23-.56.54-.66,0-.3.27-.34.48-.42a2,2,0,0,0,.55-.61c0-.06,0-.15.08-.19a5.36,5.36,0,0,1,.75-.68,5.2,5.2,0,0,0,.47-.35.28.28,0,0,1,.38.07.64.64,0,0,1-.07.91c0,.06-.07.14-.12.17a2.5,2.5,0,0,0-.83.82A5.61,5.61,0,0,1,173.13,97a1.24,1.24,0,0,1-.27.17c-.37.18-.47.15-.71-.19C172.13,96.92,172.12,96.88,172.09,96.82Z"/><path class="cls-25" d="M172.32,98.74a.75.75,0,0,1-.92,0c-.12-.07-.21-.13-.22-.29s-.07-.11-.1-.17c-.15-.24-.08-.39.18-.4a1.66,1.66,0,0,1,.78.19A.51.51,0,0,1,172.32,98.74Z"/><path class="cls-25" d="M174.14,102.19h-.08a.2.2,0,0,1,0-.08h.05S174.14,102.16,174.14,102.19Z"/><path class="cls-25" d="M180.92,92.59l-.08.07.08,0Z"/><path class="cls-25" d="M163,89.24c0-.12,0-.16.13-.17h0l-.15.18Z"/><path class="cls-25" d="M183.56,77.32s0,.06,0,.09h0l.07-.09Z"/><path class="cls-25" d="M187.08,61.8l-.18-.15C187.09,61.57,187.09,61.57,187.08,61.8Z"/><path class="cls-25" d="M200,48.68l.16-.19C200.17,48.61,200.15,48.69,200,48.68Z"/><path class="cls-25" d="M203.83,48.07l-.06,0h0s0,0,0,0Z"/><polygon class="cls-25" points="174.96 80.15 174.97 80.19 174.93 80.18 174.96 80.15"/></svg>