<svg xmlns="http://www.w3.org/2000/svg" xmlns:xlink="http://www.w3.org/1999/xlink" viewBox="0 0 255.12 121.89"><defs><style>.cls-1{isolation:isolate;}.cls-2{fill:#fff;}.cls-3{fill:#fcca2d;}.cls-4{fill:none;stroke:#232121;stroke-linecap:round;stroke-linejoin:round;stroke-width:0.67px;}.cls-5,.cls-6{fill:#dbe3fb;}.cls-6{stroke:#353535;stroke-miterlimit:10;}.cls-7{fill:url(#linear-gradient);}.cls-8{fill:url(#linear-gradient-2);}.cls-9{fill:url(#linear-gradient-3);}.cls-10{fill:url(#radial-gradient);}.cls-11{fill:url(#linear-gradient-4);}.cls-12{fill:url(#linear-gradient-5);}.cls-13{mix-blend-mode:screen;fill:url(#linear-gradient-6);}.cls-14{fill:#ff3842;}.cls-14,.cls-15,.cls-16{fill-rule:evenodd;}.cls-15{fill:#ffe800;}.cls-16{fill:#423a47;}.cls-17{font-size:8.5px;font-family:ArialMT, Arial;}</style><linearGradient id="linear-gradient" x1="192.94" y1="91.45" x2="177.86" y2="112.1" gradientUnits="userSpaceOnUse"><stop offset="0" stop-color="#666"/><stop offset="0.4"/></linearGradient><linearGradient id="linear-gradient-2" x1="183.46" y1="112.1" x2="199.09" y2="110.87" xlink:href="#linear-gradient"/><linearGradient id="linear-gradient-3" x1="173.4" y1="106.25" x2="193.92" y2="109.37" xlink:href="#linear-gradient"/><radialGradient id="radial-gradient" cx="165.47" cy="93.2" r="31.12" gradientUnits="userSpaceOnUse"><stop offset="0" stop-color="#fff"/><stop offset="0.21" stop-color="#fbfbfb"/><stop offset="0.43" stop-color="#efefef"/><stop offset="0.65" stop-color="#dbdbdb"/><stop offset="0.86" stop-color="#bfbfbf"/><stop offset="1" stop-color="#a9a9a9"/></radialGradient><linearGradient id="linear-gradient-4" x1="157.83" y1="87.45" x2="204.23" y2="112.72" xlink:href="#linear-gradient"/><linearGradient id="linear-gradient-5" x1="157.58" y1="80.33" x2="179.32" y2="109.54" xlink:href="#linear-gradient"/><linearGradient id="linear-gradient-6" x1="182.59" y1="95.01" x2="169.54" y2="79.38" gradientUnits="userSpaceOnUse"><stop offset="0" stop-color="#666"/><stop offset="1"/></linearGradient></defs><g class="cls-1"><g id="Layer_1" data-name="Layer 1"><rect class="cls-2" x="65.19" y="14.85" width="124.74" height="102.3" rx="3.41"/><path class="cls-3" d="M186.52,14.85H68.6a3.4,3.4,0,0,0-3.41,3.41v4.87H189.93V18.26A3.41,3.41,0,0,0,186.52,14.85Z"/><path class="cls-4" d="M186.52,14.85H68.6a3.4,3.4,0,0,0-3.41,3.41v4.87H189.93V18.26A3.41,3.41,0,0,0,186.52,14.85Z"/><rect class="cls-4" x="65.19" y="14.85" width="124.74" height="102.3" rx="3.41"/><path class="cls-2" d="M168.64,20.56h-1.88a.31.31,0,0,1-.31-.32V18.37a.31.31,0,0,1,.31-.32h1.88a.32.32,0,0,1,.32.32v1.87A.32.32,0,0,1,168.64,20.56Zm-1.56-.63h1.24V18.69h-1.24Z"/><path class="cls-2" d="M176.73,19.62h-2.64a.32.32,0,1,1,0-.63h2.64a.32.32,0,0,1,0,.63Z"/><path class="cls-2" d="M184.15,20.56a.28.28,0,0,1-.22-.1l-1.87-1.86a.32.32,0,0,1,.45-.45L184.38,20a.31.31,0,0,1,0,.44A.32.32,0,0,1,184.15,20.56Z"/><path class="cls-2" d="M182.29,20.56a.3.3,0,0,1-.23-.1.31.31,0,0,1,0-.44l1.87-1.87a.32.32,0,1,1,.45.45l-1.87,1.86A.28.28,0,0,1,182.29,20.56Z"/><line class="cls-4" x1="179.46" y1="15.21" x2="179.46" y2="22.79"/><line class="cls-4" x1="171.53" y1="15.21" x2="171.53" y2="22.79"/><line class="cls-4" x1="163.59" y1="15.21" x2="163.59" y2="22.79"/><path class="cls-5" d="M181.32,103.32H75.61a2.5,2.5,0,0,1-2.49-2.49h0a2.49,2.49,0,0,1,2.49-2.49H181.32a2.49,2.49,0,0,1,2.49,2.49h0A2.5,2.5,0,0,1,181.32,103.32Z"/><path class="cls-5" d="M181.32,113.27H75.61a2.49,2.49,0,0,1-2.49-2.49h0a2.5,2.5,0,0,1,2.49-2.49H181.32a2.5,2.5,0,0,1,2.49,2.49h0A2.49,2.49,0,0,1,181.32,113.27Z"/><path class="cls-5" d="M181.32,84.64H75.61a2.49,2.49,0,0,1-2.49-2.49h0a2.49,2.49,0,0,1,2.49-2.48H181.32a2.49,2.49,0,0,1,2.49,2.48h0A2.49,2.49,0,0,1,181.32,84.64Z"/><path class="cls-5" d="M181.32,94.6H75.61a2.49,2.49,0,0,1-2.49-2.49h0a2.5,2.5,0,0,1,2.49-2.49H181.32a2.5,2.5,0,0,1,2.49,2.49h0A2.49,2.49,0,0,1,181.32,94.6Z"/><path class="cls-5" d="M181.32,66H75.61a2.49,2.49,0,0,1-2.49-2.49h0A2.5,2.5,0,0,1,75.61,61H181.32a2.5,2.5,0,0,1,2.49,2.49h0A2.49,2.49,0,0,1,181.32,66Z"/><path class="cls-5" d="M181.32,75.93H75.61a2.5,2.5,0,0,1-2.49-2.49h0A2.49,2.49,0,0,1,75.61,71H181.32a2.49,2.49,0,0,1,2.49,2.49h0A2.5,2.5,0,0,1,181.32,75.93Z"/><rect class="cls-6" x="80.24" y="45.71" width="96.45" height="11.43"/><polygon class="cls-7" points="195.44 95.15 192.95 98.19 181.54 99.93 184.03 96.89 195.44 95.15"/><polygon class="cls-8" points="192.36 108.5 189.88 111.53 184.96 114.88 187.44 111.84 192.36 108.5"/><polygon class="cls-9" points="187.44 111.84 184.96 114.88 176.63 103.28 179.11 100.24 187.44 111.84"/><polygon class="cls-10" points="168.43 80.27 192.72 94.62 182.39 96.19 191.04 108.23 187.64 110.55 178.99 98.5 173.93 107.41 168.43 80.27"/><path class="cls-11" d="M195.44,95.15,184,96.89l8.33,11.61-4.92,3.35-8.33-11.61-5.59,9.84L167.1,78.42ZM191,108.23l-8.65-12,10.33-1.57L168.43,80.27l5.5,27.14,5.06-8.9,8.65,12,3.4-2.32"/><polygon class="cls-12" points="173.52 110.08 171.04 113.12 164.62 81.45 167.1 78.42 173.52 110.08"/><path class="cls-13" d="M171.19,93.88a51.6,51.6,0,0,1,17.31,1.38l4.22-.64L168.43,80.27Z"/><path class="cls-14" d="M54.78,68.57l.68.12a.22.22,0,0,1,.13.08,2.18,2.18,0,0,0,.43.32,1.12,1.12,0,0,1,.32.42c.1.26.12.55.22.81a.45.45,0,0,1-.13.53,2.78,2.78,0,0,0-.21.27c-.11.18-.35.28-.43.46s-.33.25-.5.35a1.83,1.83,0,0,1-1.23.27c-.16.15-.35,0-.51,0s-.39-.15-.59-.2-.2-.2-.25-.33l.17.06a1.09,1.09,0,0,0,0-.18s0,0,0,0c-.1-.25-.21-.49-.31-.74l.2-.22c-.11-.17-.18-.31-.38-.38-.47-.16-.94-.34-1.42-.52,0,.1-.08.18-.12.26-.13.26.2.52,0,.79a.08.08,0,0,0,0,.09c.15.16.09.43.27.57a.26.26,0,0,1,.08.24,1.06,1.06,0,0,0,.17.65.73.73,0,0,1,.07.19,6.54,6.54,0,0,0,.2,1.52.22.22,0,0,1,0,.21c-.12.2,0,.34.07.53a1.55,1.55,0,0,1,0,1,.92.92,0,0,1,.25.74.47.47,0,0,0,0,.39.66.66,0,0,1,.1.25,1.69,1.69,0,0,0,.1.58,1.63,1.63,0,0,1,.06.63.8.8,0,0,0,.08.45c.08.13,0,.34.06.52a.12.12,0,0,0,.05.09.58.58,0,0,1,.18.48,6,6,0,0,1,.13,1.27.53.53,0,0,0,0,.22,14.74,14.74,0,0,1,.28,2,1.48,1.48,0,0,0,.22.65s.1-.06.1-.08c0-.27.15-.43.3-.61.37-.44.75-.88,1.08-1.34s.64-1,1-1.45a3.45,3.45,0,0,1,.24-.47c.35-.42.7-.82,1-1.26.45-.6,1-1.14,1.44-1.74.64-.84,1.34-1.65,2-2.47a19.15,19.15,0,0,0,1.52-2,5,5,0,0,1,.39-.52,7.83,7.83,0,0,1,.45-.67c1-1.13,1.9-2.27,2.83-3.42L67,66.35a.78.78,0,0,0,.21-.47.86.86,0,0,0-.74.13c-.24.14-.48.34-.79.18,0,0-.14,0-.21,0a2.16,2.16,0,0,1-.8,0,.3.3,0,0,0-.21,0c-.26.16-.57-.1-.83.09,0,0-.14,0-.19-.07a.4.4,0,0,0-.29-.1.92.92,0,0,1-.37,0,1,1,0,0,0-.42,0,2.75,2.75,0,0,1-1.21-.06l-.25.18-.48-.14c-.2.2-.5-.07-.7.15l-.74-.1a1.72,1.72,0,0,0-.32,0l-.37,0a8.28,8.28,0,0,0-.86-.06,8,8,0,0,0-.84.11,3.69,3.69,0,0,0-.58.09,1.11,1.11,0,0,1-.74,0,.3.3,0,0,0-.21,0,1.77,1.77,0,0,0-.46.15c-.17.1-.33-.08-.51,0a1.12,1.12,0,0,1-.67.14,2.94,2.94,0,0,0-.84.12,1,1,0,0,0-.68.4c-.06.09-.23.19-.31.16-.25-.09-.35.14-.52.21a.24.24,0,0,0-.11.28.61.61,0,0,0,.48.51,2,2,0,0,1,.55.22A2.57,2.57,0,0,0,53,69l0,0c.18-.25.38-.44.72-.29a.31.31,0,0,0,.21,0,1.77,1.77,0,0,1,.86-.07l.15.18,0-.05Z"/><path class="cls-15" d="M87.25,80.17a.57.57,0,0,1-.44-.18,1.37,1.37,0,0,0-.48-.31,2.38,2.38,0,0,0-.42.42,5.86,5.86,0,0,1-1.1,1.18,5.48,5.48,0,0,0-1,1,6.84,6.84,0,0,1-.62.8,6.65,6.65,0,0,0-.54.65,1.09,1.09,0,0,1-.13.17,3.84,3.84,0,0,0-.83,1.49,4,4,0,0,1-.68,1.41l-1.35,1.61a.75.75,0,0,1-.16.15c-.56.32-.87.9-1.39,1.26-.29.48-.8.8-1,1.34,0,0-.09,0-.14,0a1.22,1.22,0,0,1,.28-.75l1.23-1.72a2.21,2.21,0,0,1,.58-.56,2.85,2.85,0,0,0,.51-.47,13.8,13.8,0,0,1,1-1.26,1,1,0,0,0,.21-.31c.24-.62.51-1.23.8-1.82a2.74,2.74,0,0,1,.29-.46c.27-.34.56-.66.83-1a6.75,6.75,0,0,1,.47-.59,8.38,8.38,0,0,0,.86-1,1.53,1.53,0,0,1,.58-.55.58.58,0,0,0,.27-.24,1.76,1.76,0,0,1,.4-.5,3.13,3.13,0,0,0,.47-.63,1.43,1.43,0,0,0-.67-.72c-.07,0-.12-.12-.19-.19h0c0,.06,0,.1,0,.19a2.36,2.36,0,0,0-.45-.32.91.91,0,0,1-.56-.54c0-.11-.14-.06-.23,0h0s-.07-.13-.13-.16c-.25-.1-.52-.17-.57-.5,0,0-.07,0-.09,0s-.2,0-.28-.11a8.39,8.39,0,0,0-.65-.56,1.45,1.45,0,0,1-.62-.58c-.22,0-.28-.2-.4-.32s-.28-.21-.41-.33a1.64,1.64,0,0,0-.79-.44c-.14-.05-.34-.08-.38-.27s-.11-.15-.22-.21a5.53,5.53,0,0,1-.71-.48c-.49-.36-1-.75-1.47-1.08a4.4,4.4,0,0,1-.89-.77,2.17,2.17,0,0,0-.29-.24c-.46-.37-.94-.72-1.4-1.09s-.81-.7-1.21-1.07c-.16-.16-.28-.35-.46-.57a1.37,1.37,0,0,1-.85-.61,1.27,1.27,0,0,0-.61-.43,1.5,1.5,0,0,1-.32-.19c-.46-.35-.92-.7-1.37-1.06a1.56,1.56,0,0,0-.67-.33c-.26-.06-.53-.08-.75-.11l-.45.5c-.4.46-.81.92-1.2,1.38a7.86,7.86,0,0,1-.87,1,2.26,2.26,0,0,0-.25.28,10.81,10.81,0,0,1-1.46,1.78.83.83,0,0,0-.16.21l-.53.75a3.73,3.73,0,0,0-.41.57,7.82,7.82,0,0,1-1.09,1.46c-.24.3-.47.6-.71.89-.09.11-.17.22-.27.33s-.36.36-.51.55c-.53.66-1,1.33-1.62,2a2.86,2.86,0,0,0-.38.4,4.23,4.23,0,0,1-.32.42c-.11.14-.17.36-.3.43s-.19.35-.37.38-.1.34-.33.3c0,0-.06.08-.09.12a3.35,3.35,0,0,1-.2.37c-.13.22-.3.41-.42.64a11.19,11.19,0,0,1-1.33,2,3.47,3.47,0,0,0-.68,1,1,1,0,0,1-.37.57.36.36,0,0,0-.13.45,5.36,5.36,0,0,0,.42.39c.73.61,1.48,1.21,2.21,1.83S58.1,88.43,59,89.08a6.66,6.66,0,0,1,1.76,1.32l0,0c.31.12.47.42.74.59a6.43,6.43,0,0,1,.76.62,1.64,1.64,0,0,0,.32.27.65.65,0,0,1,.34.39c0,.06,0,.16.09.17.27.06.41.28.6.44s.14.14.22.14.34.19.48.31l.32.27c.36.26.7.56,1.06.82.12.09.12.32.35.29s.12.31.34.28c.18.17.33.38.59.43,0,.3.37.31.49.52,0,.05.06.12.09.12.28,0,.32.26.47.39s.42.49.77.51a.5.5,0,0,1,.19.1l.72.63a3.93,3.93,0,0,1,.7.58c.21.26.55.32.74.59,0,0,.13,0,.22,0a4.3,4.3,0,0,1,.88-1.41c.3-.34.58-.68.87-1a2.74,2.74,0,0,0,.23-.36,3.67,3.67,0,0,1,.8-1.14.57.57,0,0,0,.24-.41.9.9,0,0,1,.25-.47c.36-.46.79-.89,1.13-1.37s.56-.67.84-1c.08-.09.18-.16.27-.25.13.25.14.25,0,.4-.25.33-.51.66-.77,1a1.22,1.22,0,0,1-.25.2l-.42.49a1.15,1.15,0,0,1-.41.61.73.73,0,0,0-.3.49.87.87,0,0,1-.3.51,2.59,2.59,0,0,0-.5.69A3.13,3.13,0,0,1,73.13,97a.27.27,0,0,0-.07.08,3.92,3.92,0,0,1-.8,1,8.33,8.33,0,0,0-.68,1.17c.35.18.59.44.9.63a10.72,10.72,0,0,1,1.14.9c.16.13.35.23.52.36a2.92,2.92,0,0,0,.5.44,4.09,4.09,0,0,1,1,.77,2.5,2.5,0,0,0,.94.64c.14,0,.32.09.32.32,0,0,.08.11.14.15a4.79,4.79,0,0,1,.66.53,2.15,2.15,0,0,0,.71.47,1,1,0,0,1,.3.22l.16.12a1.92,1.92,0,0,0,.5.28,1.29,1.29,0,0,1,.52.33c0,.06.16,0,.26.07s.32-.22.39-.37c.28-.57.75-1,1-1.58A2,2,0,0,1,82,103a1.67,1.67,0,0,0,.26-.35,5.25,5.25,0,0,0,.51-.89,3,3,0,0,1,.58-.89.42.42,0,0,0,0-.1,1.44,1.44,0,0,1,.44-.73c.19-.21.32-.46.51-.66a4.15,4.15,0,0,0,.39-.52c.12-.17.27-.33.39-.51a2,2,0,0,0,.33-.58c.06-.25.32-.29.39-.51s.14-.2.14-.33a.4.4,0,0,1,.1-.18,1.66,1.66,0,0,0,.48-.69.37.37,0,0,1,.14-.22.73.73,0,0,0,.28-.32c.1-.16.26-.28.35-.44s.37-.3.42-.54.33-.37.36-.64c0-.09.07-.14.13-.21s.23-.37.43-.49c0-.28.3-.39.38-.63.39-.23.45-.71.77-1a1.86,1.86,0,0,1,.66-.81.64.64,0,0,0,.25-.27c0-.17,0-.35.26-.34,0-.11,0-.23.1-.28s.29-.37.53-.49.21-.31.32-.47.16-.27.25-.39l.55-.63c.07-.1.11-.27.2-.3s.24-.3.41-.4a.79.79,0,0,0,.33-.53c0-.06.1-.1.15-.15s.18-.15.2-.24c.06-.26.27-.41.4-.61s.14-.31,0-.5-.34-.21-.48-.34a2.54,2.54,0,0,0-1-.54,3.48,3.48,0,0,1-.38-.2A.44.44,0,0,0,92.3,84a.56.56,0,0,1-.5-.42.22.22,0,0,0,0,.08s.05,0,.07,0,0,0,0,0h-.1a4.05,4.05,0,0,0-1-.52l.09,0s0,0,0,0l-.09.11-.11-.3c-.29,0-.37-.07-.5-.23s-.07-.15-.17-.19c-.36-.13-.61-.44-1-.55a.76.76,0,0,1-.25-.2,4.19,4.19,0,0,0-.26-.33c-.1-.08-.26-.1-.35-.19a6.38,6.38,0,0,1-.9-.9h0s0,0,0,0Z"/><path class="cls-16" d="M78.21,106.12c-.09,0-.22,0-.25-.07-.11-.2-.4-.18-.47-.42,0,0-.15-.09-.23-.1a.37.37,0,0,1-.28-.15.9.9,0,0,0-.38-.31c-.13-.07-.19-.25-.29-.39a1.51,1.51,0,0,1-.92-.58c-.18-.17-.43-.32-.46-.63,0,0-.13-.09-.2-.14a1.11,1.11,0,0,0,0,.13s-.07,0-.09,0c-.26-.18-.53-.37-.51-.75,0,0,.06.08,0,0s0,0,0,0a2.06,2.06,0,0,0-.26,0s-.09,0-.1,0c-.34-.31-.86-.38-1.16-.75s-.45-.32-.65-.53a1.12,1.12,0,0,0-.65-.45L70.17,100l-.69-.57c0-.15.14-.08.17-.16s-.11-.16-.32-.07c0,0-.07,0-.09,0a7.53,7.53,0,0,0-1-.81l-.33-.27-.74-.62a9.3,9.3,0,0,1-1.28-1.14.52.52,0,0,0-.17-.13,3.36,3.36,0,0,1-.89-.7,4.83,4.83,0,0,0-.49-.41c-.41-.3-.79-.63-1.17-1a.93.93,0,0,1-.18-.26.46.46,0,0,0-.38-.28c-.06,0-.16,0-.18-.1-.15-.27-.49-.29-.69-.51a7.21,7.21,0,0,0-.66-.56,11.35,11.35,0,0,1-1.17-1c-.07-.07-.18-.11-.26-.18s-.25-.13-.29-.23-.1-.33-.34-.39-.28-.21-.44-.29a2.44,2.44,0,0,1-.77-.58,4.64,4.64,0,0,0-.89-.76c-.12-.08-.22-.18-.33-.27L56,88.25c-.4-.33-.89-.55-1.11-1.06,0,0-.15,0-.19,0a1.39,1.39,0,0,0-.46-.41,3.84,3.84,0,0,1-.5-.32l-.17-.13,0,0,0-.05-.05.08c-.26-.24-.53-.47-.78-.71,0-.12.09-.26-.08-.29a.35.35,0,0,1-.29-.28l.08.07.08,0a.12.12,0,0,0,0-.08.1.1,0,0,0-.08,0s-.06,0-.09,0-.07-.23,0-.32a2.49,2.49,0,0,0-.15-1.21.84.84,0,0,0-.1-.36,1.47,1.47,0,0,1-.26-.81,3.5,3.5,0,0,0-.15-.62,1,1,0,0,1-.12-.78.2.2,0,0,0,0-.15.87.87,0,0,1,0-.72l-.38-.66.15-.23a4.66,4.66,0,0,1-.2-1c0-.16-.22-.24-.1-.44s0-.27-.11-.39c.11-.29-.12-.51-.14-.77a5.17,5.17,0,0,1-.1-.79.61.61,0,0,0-.11-.35c-.11-.14,0-.18.09-.27a1.47,1.47,0,0,1-.36-1,11,11,0,0,0-.17-1.39,6.52,6.52,0,0,0-.31-.91c0-.06-.07-.14,0-.2a1.11,1.11,0,0,0-.19-.89c0-.1.08-.19.13-.29a.77.77,0,0,1-.22-.68l.09-.3c-.25-.11-.07-.4-.23-.56a1.79,1.79,0,0,1-.25-.46l-.33.06-.51-.32c-.06,0-.15,0-.19-.1a1,1,0,0,0-.64-.45c-.25-.07-.4-.29-.65-.36a2.08,2.08,0,0,1-.64-.4Q45,66,43.83,65.11a1.67,1.67,0,0,1-.38-.37c-.16-.27-.46-.38-.67-.58a3.4,3.4,0,0,0-.3-.23c-.19-.15-.37-.33-.58-.47a10.32,10.32,0,0,1-1.17-1.12.55.55,0,0,1-.18-.32.84.84,0,0,0-.24-.52c-.3-.42-.55-.87-.83-1.3-.06-.09-.13-.17-.19-.25a.44.44,0,0,1-.15-.39c-.1-.09-.17-.22-.33-.23a.47.47,0,0,0,.09-.12s0-.05,0-.07-.06,0-.06,0a.68.68,0,0,0,0,.14.8.8,0,0,1,0,.15c0,.12.07.14.16.13a.59.59,0,0,0,.14-.06.71.71,0,0,0-.28.69.86.86,0,0,1-.08.52,1,1,0,0,0-.1.8s0,.09,0,.09c-.19.15,0,.34,0,.49a.63.63,0,0,1-.1.25c-.1.1,0,.21,0,.3s-.14.11-.18.17a.26.26,0,0,0-.06.2c.09.24-.21.41-.13.65-.18.14-.14.45-.4.53,0,0-.05.05-.06.09a1.38,1.38,0,0,1-.83.84c-.16.08-.33.14-.48.21-.28-.16-.57-.26-.72-.59H36a15.27,15.27,0,0,0-.74-1.58h.09l0-.06,0,.07a1.9,1.9,0,0,1-.06-.75.41.41,0,0,0,0-.31c-.31-.36-.2-.8-.19-1.19a10.27,10.27,0,0,0,0-1.11.86.86,0,0,1,0-.16,2,2,0,0,0,.12-.46c0-.15-.12-.31-.12-.46a1.47,1.47,0,0,1,.14-.5.89.89,0,0,1-.07-.76c.05-.23.11-.45.15-.68a2.53,2.53,0,0,1,.71-1.43,1.59,1.59,0,0,0,.15-.21c-.05-.06-.08-.11-.12-.13a14.76,14.76,0,0,0-1.56-.73,11.3,11.3,0,0,1-2.61-1.16,2.4,2.4,0,0,1-.42-.34,4.93,4.93,0,0,0-.74-.63c-.15-.12-.3-.26-.46-.37a.68.68,0,0,1-.28-.83,2.4,2.4,0,0,1,.67-.22,3.15,3.15,0,0,0,.64.41,4.85,4.85,0,0,1,.79.55,2.43,2.43,0,0,0,.56.33,3.77,3.77,0,0,1,1.11.65.67.67,0,0,0,.18.11,12.28,12.28,0,0,1,1.5.74,2,2,0,0,0,.5.11c0-.08-.06-.14-.09-.19-.3-.4-.76-1.32-1-1.75a7.13,7.13,0,0,0-.85-1.37,4.36,4.36,0,0,1-.57-1c.12-.11.17,0,.22,0l1.08.91a.63.63,0,0,1,.11.12,18.91,18.91,0,0,1,1.19,1.73,7,7,0,0,0,.63.91,1.19,1.19,0,0,1,.22.54.64.64,0,0,0,.44.49l.66.25a.56.56,0,0,0,.42,0c.55-.28,1.19-.27,1.76-.5a1.91,1.91,0,0,1,.59-.06c.46,0,.93,0,1.39-.08a1.22,1.22,0,0,1,.33,0c.07,0,.15,0,.21,0,.57-.2,1.09.1,1.64.14,0,0,.12,0,.15,0,.3.27.76.2,1.06.48.1.09.23.16.33.25a.92.92,0,0,1,.29.83,2.47,2.47,0,0,1-.1.53.16.16,0,0,1,0,.09c-.32.26-.55.63-.93.78-.21.09-.36.28-.61.31s-.43.15-.67.19c0,0,0,0-.06.07a2.08,2.08,0,0,0,.54.35.76.76,0,0,1,.28.15c.17.17.34.35.5.54a.84.84,0,0,0,.44.29,1,1,0,0,1,.67.6,1.32,1.32,0,0,1,.93.67c.26.34.58.63.82,1a2.47,2.47,0,0,0,.44.52,5.53,5.53,0,0,1,.8,1,2.09,2.09,0,0,0,.48.55,2.2,2.2,0,0,1,.55.66c.06.13.17.23.24.35.18.29.48.48.6.82s.36.56.48.88a.34.34,0,0,0,.57.17,1.14,1.14,0,0,1,.66-.18.73.73,0,0,0,.31-.09.5.5,0,0,1,.36,0,.48.48,0,0,0,.42-.07c.12-.08.25,0,.35,0s.19-.17.29-.22a1.13,1.13,0,0,1,.32,0,1.26,1.26,0,0,0,.77-.18,1,1,0,0,1,.74,0,.89.89,0,0,0,.76-.09,1,1,0,0,1,.46-.08l.8,0s0,0,0,0,0,0,0,0l0-.08a.29.29,0,0,0,.37.12,4.9,4.9,0,0,1,1.87,0l.07.06-.09,0a1,1,0,0,1,.53,0,3,3,0,0,0,.42.06,6.77,6.77,0,0,1,.78,0,2.39,2.39,0,0,0,.8,0,.53.53,0,0,1,.41,0s.1,0,.14,0,.29,0,.43,0a1.18,1.18,0,0,0,.25,0,6.43,6.43,0,0,1,.74-.08,1.2,1.2,0,0,0,.68-.12A.63.63,0,0,1,66,65a1.78,1.78,0,0,0,1.27,0,1.05,1.05,0,0,1,.73-.1,1.63,1.63,0,0,1,.72.27,2.8,2.8,0,0,0,.65.37.88.88,0,0,1,.35.24c0,.06.09.13.15.15a3,3,0,0,1,.87.56,3.8,3.8,0,0,1,.57.35,2,2,0,0,0,.58.28v0c0,.08.06.18.18.15h0c.1,0,.22,0,.29.12.32.32.77.47,1.07.8a5.7,5.7,0,0,0,1.12.83c.32.22.6.49.94.69.11.07,0,.28.2.25.1.19.3.26.47.36s.3.26.47.36a.59.59,0,0,1,.24.2c0,.07.13.2.17.19.23-.07.3.28.53.18l-.09,0s0,0,0,.06l0,0,.08-.07c.1.12.17.28.3.36a.86.86,0,0,1,.26.24.57.57,0,0,0,.16.15c.4.23.75.53,1.14.77.15.1.18.27.34.33a1.08,1.08,0,0,1,.43.21,9.58,9.58,0,0,0,.77.66,3,3,0,0,0,1.3.93c.07,0,.12.11.19.17s.06.09.11.1a2.46,2.46,0,0,1,1.07.78,12.62,12.62,0,0,0,1.24.94c.19.13.4.23.6.34,0,0,.12.07.12.1,0,.25.22.25.34.36a5.17,5.17,0,0,1,.73.6,1.45,1.45,0,0,0,.54.33,2.74,2.74,0,0,1,.79.53,4.92,4.92,0,0,0,.73.54,5.35,5.35,0,0,1,.8.62c.19.18.52.19.58.51,0,0,.1,0,.15.06a2,2,0,0,1,.37.21,9.82,9.82,0,0,0,1.57,1.06c.19.1.34.27.52.38l1.47.88a1.37,1.37,0,0,1,.46.37c.1.14.3.15.43.29a.92.92,0,0,0,.82.41c0,.08.07.18.14.23a.25.25,0,0,1,.11.23,3,3,0,0,1,0,.74c0,.14-.06.37-.3.4,0,0-.08.07-.08.11a.29.29,0,0,1-.18.25.4.4,0,0,0-.2.48c-.25,0-.45.13-.43.44a.32.32,0,0,1-.19.3c-.08,0-.11.17-.16.26l-.3.42c-.29,0-.31.37-.55.45,0,0,0,0,0,0-.13.53-.66.78-.89,1.24-.08.16-.29.24-.36.39s-.38.3-.47.57a2.23,2.23,0,0,1-.49.64c-.16.19-.34.36-.49.56s-.26.36-.4.55c-.27.37-.56.73-.83,1.11a4.1,4.1,0,0,0-.34.62.6.6,0,0,1-.28.31.79.79,0,0,0-.43.47,4.47,4.47,0,0,1-.55.88,7.71,7.71,0,0,1-.59.82c-.24.31-.47.63-.73.92s-.12.38-.32.49-.18.28-.31.41-.13.33-.23.48a4.5,4.5,0,0,1-.39.5c-.17.2-.21.5-.5.6,0,0,0,0-.06.08-.14.2-.17.48-.45.56a1.34,1.34,0,0,1-.4.54s-.08.06-.07.08c.1.28-.2.35-.28.53a2.65,2.65,0,0,1-.32.5c-.14.16-.3.3-.44.47s-.27.38-.4.58c-.3.42-.48.92-.82,1.31a11.62,11.62,0,0,1-1.42,1.47,1.48,1.48,0,0,0-.36.39.4.4,0,0,1-.34.2,1.21,1.21,0,0,1-1-.38,2.32,2.32,0,0,0-.39-.29.37.37,0,0,1-.16-.26l.06.06h0ZM54,70.69l-.09,0h-.05s0,.07.05.07l.08,0c.07,0,.1.17.21.11s.09-.19,0-.35A2.51,2.51,0,0,0,54,70.69ZM39.11,54.8c.12.36.17.39.51.42.1,0,.26,0,.29.09s.29.11.41.19c.54-.09,1,.3,1.49.32a.85.85,0,0,0,.87.1,2.71,2.71,0,0,1,.41-.09.61.61,0,0,1,.27,0c.07,0,.12.11.18.16a1.62,1.62,0,0,1,.84-.33c.45-.08.52-.23.39-.67v-.06a1,1,0,0,0,.08.11h0l-.09-.11a3.55,3.55,0,0,1-.47-.08c-.12,0-.13-.24-.32-.2s-.23-.19-.33-.25l-.84,0c-.4,0-.8,0-1.19,0l-1.18.11c-.45,0-.89,0-1.38,0l-.29.41.35-.19Zm-1.53,3a.59.59,0,0,1,0-.14c0-.23,0-.46-.05-.68a.25.25,0,0,0-.08-.14,1,1,0,0,1-.25-.84s0-.06-.07-.09-.26.09-.37-.07a.5.5,0,0,0-.36-.16,1.89,1.89,0,0,0-.19,1.18.3.3,0,0,1,0,.21.73.73,0,0,0,0,.58c0,.05,0,.11,0,.15a1.08,1.08,0,0,0,0,.64s0,.09-.06.13-.06.14,0,.19a2.36,2.36,0,0,1,0,.65,3.39,3.39,0,0,0,.15.61.31.31,0,0,1,0,.16,3.75,3.75,0,0,0,.13,1.63s0,.12,0,.19l.27.06v.29c.18.25.34.43.61.37,0,0-.07,0-.09,0s0,0,0,.07h.07a.32.32,0,0,0,0-.09c0-.11.14-.14.12-.28a2.68,2.68,0,0,1,0-.75,10,10,0,0,0,.11-1.55c0-.32,0-.64,0-1s-.09-.5.08-.73C37.42,58.22,37.53,58,37.58,57.8Zm2.16.81c0,.09.15.18.16.27a.5.5,0,0,0,.2.37,4.51,4.51,0,0,1,.71.87,4,4,0,0,1,.77,1.1c0,.11.16.19.24.29s.16.2.25.28a6.58,6.58,0,0,0,1.07,1,5.41,5.41,0,0,1,.83.67,2.12,2.12,0,0,0,.38.29,2.35,2.35,0,0,1,.73.63,1.51,1.51,0,0,0,.64.49c.2.1.46.11.53.38,0,0,.06,0,.09,0a2.83,2.83,0,0,1,1,.56,1.37,1.37,0,0,1,.44.27,1.29,1.29,0,0,0,.68.51c.11,0,.2.15.29.23s.1.1.15.13a1.32,1.32,0,0,0,.39.17c.17,0,.2.26.41.2s.25.07.35.1l.52-.8c-.07-.12-.19-.23-.2-.36a.7.7,0,0,0-.18-.42l-.32-.34a6.62,6.62,0,0,1-.51-.56,8.59,8.59,0,0,0-.7-.87c-.6-.68-1.16-1.38-1.75-2.06a5,5,0,0,0-.72-.73c-.27-.22-.4-.61-.8-.64,0,0-.06,0-.09-.06l-.51-.4a13,13,0,0,1-1.45-1.12.31.31,0,0,0-.18-.11,2.61,2.61,0,0,1-1-.55,4.93,4.93,0,0,0-.61-.44c-.74-.3-1.35-.82-2.06-1.16a.89.89,0,0,0-.67-.13c0,.19.07.31.16.44l.25.39a3.5,3.5,0,0,1,.24.42,3.9,3.9,0,0,1,.12.46l0,.19Zm15,10,.68.12a.22.22,0,0,1,.13.08,2.18,2.18,0,0,0,.43.32,1.12,1.12,0,0,1,.32.42c.1.26.12.55.22.81a.45.45,0,0,1-.13.53,2.78,2.78,0,0,0-.21.27c-.11.18-.35.28-.43.46s-.33.25-.5.35a1.83,1.83,0,0,1-1.23.27c-.16.15-.35,0-.51,0s-.39-.15-.59-.2-.2-.2-.25-.33l.17.06a1.09,1.09,0,0,0,0-.18s0,0,0,0c-.1-.25-.21-.49-.31-.74l.2-.22c-.11-.17-.18-.31-.38-.38-.47-.16-.94-.34-1.42-.52,0,.1-.08.18-.12.26-.13.26.2.52,0,.79a.08.08,0,0,0,0,.09c.15.16.09.43.27.57a.26.26,0,0,1,.08.24,1.06,1.06,0,0,0,.17.65.73.73,0,0,1,.07.19,6.54,6.54,0,0,0,.2,1.52.22.22,0,0,1,0,.21c-.12.2,0,.34.07.53a1.55,1.55,0,0,1,0,1,.92.92,0,0,1,.25.74.47.47,0,0,0,0,.39.66.66,0,0,1,.1.25,1.69,1.69,0,0,0,.1.58,1.63,1.63,0,0,1,.06.63.8.8,0,0,0,.08.45c.08.13,0,.34.06.52a.12.12,0,0,0,.05.09.58.58,0,0,1,.18.48,6,6,0,0,1,.13,1.27.53.53,0,0,0,0,.22,14.74,14.74,0,0,1,.28,2,1.48,1.48,0,0,0,.22.65s.1-.06.1-.08c0-.27.15-.43.3-.61.37-.44.75-.88,1.08-1.34s.64-1,1-1.45a3.45,3.45,0,0,1,.24-.47c.35-.42.7-.82,1-1.26.45-.6,1-1.14,1.44-1.74.64-.84,1.34-1.65,2-2.47a19.15,19.15,0,0,0,1.52-2,5,5,0,0,1,.39-.52,7.83,7.83,0,0,1,.45-.67c1-1.13,1.9-2.27,2.83-3.42L67,66.35a.78.78,0,0,0,.21-.47.86.86,0,0,0-.74.13c-.24.14-.48.34-.79.18,0,0-.14,0-.21,0a2.16,2.16,0,0,1-.8,0,.3.3,0,0,0-.21,0c-.26.16-.57-.1-.83.09,0,0-.14,0-.19-.07a.4.4,0,0,0-.29-.1.92.92,0,0,1-.37,0,1,1,0,0,0-.42,0,2.75,2.75,0,0,1-1.21-.06l-.25.18-.48-.14c-.2.2-.5-.07-.7.15l-.74-.1a1.72,1.72,0,0,0-.32,0l-.37,0a8.28,8.28,0,0,0-.86-.06,8,8,0,0,0-.84.11,3.69,3.69,0,0,0-.58.09,1.11,1.11,0,0,1-.74,0,.3.3,0,0,0-.21,0,1.77,1.77,0,0,0-.46.15c-.17.1-.33-.08-.51,0a1.12,1.12,0,0,1-.67.14,2.94,2.94,0,0,0-.84.12,1,1,0,0,0-.68.4c-.06.09-.23.19-.31.16-.25-.09-.35.14-.52.21a.24.24,0,0,0-.11.28.61.61,0,0,0,.48.51,2,2,0,0,1,.55.22A2.57,2.57,0,0,0,53,69l0,0c.18-.25.38-.44.72-.29a.31.31,0,0,0,.21,0,1.77,1.77,0,0,1,.86-.07l.15.18,0-.05Zm32.47,11.6a.57.57,0,0,1-.44-.18,1.37,1.37,0,0,0-.48-.31,2.38,2.38,0,0,0-.42.42,5.86,5.86,0,0,1-1.1,1.18,5.48,5.48,0,0,0-1,1,6.84,6.84,0,0,1-.62.8,6.65,6.65,0,0,0-.54.65,1.09,1.09,0,0,1-.13.17,3.84,3.84,0,0,0-.83,1.49,4,4,0,0,1-.68,1.41l-1.35,1.61a.75.75,0,0,1-.16.15c-.56.32-.87.9-1.39,1.26-.29.48-.8.8-1,1.34,0,0-.09,0-.14,0a1.22,1.22,0,0,1,.28-.75l1.23-1.72a2.21,2.21,0,0,1,.58-.56,2.85,2.85,0,0,0,.51-.47,13.8,13.8,0,0,1,1-1.26,1,1,0,0,0,.21-.31c.24-.62.51-1.23.8-1.82a2.74,2.74,0,0,1,.29-.46c.27-.34.56-.66.83-1a6.75,6.75,0,0,1,.47-.59,8.38,8.38,0,0,0,.86-1,1.53,1.53,0,0,1,.58-.55.58.58,0,0,0,.27-.24,1.76,1.76,0,0,1,.4-.5,3.13,3.13,0,0,0,.47-.63,1.43,1.43,0,0,0-.67-.72c-.07,0-.12-.12-.19-.19h0c0,.06,0,.1,0,.19a2.36,2.36,0,0,0-.45-.32.91.91,0,0,1-.56-.54c0-.11-.14-.06-.23,0h0s-.07-.13-.13-.16c-.25-.1-.52-.17-.57-.5,0,0-.07,0-.09,0s-.2,0-.28-.11a8.39,8.39,0,0,0-.65-.56,1.45,1.45,0,0,1-.62-.58c-.22,0-.28-.2-.4-.32s-.28-.21-.41-.33a1.64,1.64,0,0,0-.79-.44c-.14-.05-.34-.08-.38-.27s-.11-.15-.22-.21a5.53,5.53,0,0,1-.71-.48c-.49-.36-1-.75-1.47-1.08a4.4,4.4,0,0,1-.89-.77,2.17,2.17,0,0,0-.29-.24c-.46-.37-.94-.72-1.4-1.09s-.81-.7-1.21-1.07c-.16-.16-.28-.35-.46-.57a1.37,1.37,0,0,1-.85-.61,1.27,1.27,0,0,0-.61-.43,1.5,1.5,0,0,1-.32-.19c-.46-.35-.92-.7-1.37-1.06a1.56,1.56,0,0,0-.67-.33c-.26-.06-.53-.08-.75-.11l-.45.5c-.4.46-.81.92-1.2,1.38a7.86,7.86,0,0,1-.87,1,2.26,2.26,0,0,0-.25.28,10.81,10.81,0,0,1-1.46,1.78.83.83,0,0,0-.16.21l-.53.75a3.73,3.73,0,0,0-.41.57,7.82,7.82,0,0,1-1.09,1.46c-.24.3-.47.6-.71.89-.09.11-.17.22-.27.33s-.36.36-.51.55c-.53.66-1,1.33-1.62,2a2.86,2.86,0,0,0-.38.4,4.23,4.23,0,0,1-.32.42c-.11.14-.17.36-.3.43s-.19.35-.37.38-.1.34-.33.3c0,0-.06.08-.09.12a3.35,3.35,0,0,1-.2.37c-.13.22-.3.41-.42.64a11.19,11.19,0,0,1-1.33,2,3.47,3.47,0,0,0-.68,1,1,1,0,0,1-.37.57.36.36,0,0,0-.13.45,5.36,5.36,0,0,0,.42.39c.73.61,1.48,1.21,2.21,1.83S58.1,88.43,59,89.08a6.66,6.66,0,0,1,1.76,1.32l0,0c.31.12.47.42.74.59a6.43,6.43,0,0,1,.76.62,1.64,1.64,0,0,0,.32.27.65.65,0,0,1,.34.39c0,.06,0,.16.09.17.27.06.41.28.6.44s.14.14.22.14.34.19.48.31l.32.27c.36.26.7.56,1.06.82.12.09.12.32.35.29s.12.31.34.28c.18.17.33.38.59.43,0,.3.37.31.49.52,0,.05.06.12.09.12.28,0,.32.26.47.39s.42.49.77.51a.5.5,0,0,1,.19.1l.72.63a3.93,3.93,0,0,1,.7.58c.21.26.55.32.74.59,0,0,.13,0,.22,0a4.3,4.3,0,0,1,.88-1.41c.3-.34.58-.68.87-1a2.74,2.74,0,0,0,.23-.36,3.67,3.67,0,0,1,.8-1.14.57.57,0,0,0,.24-.41.9.9,0,0,1,.25-.47c.36-.46.79-.89,1.13-1.37s.56-.67.84-1c.08-.09.18-.16.27-.25.13.25.14.25,0,.4-.25.33-.51.66-.77,1a1.22,1.22,0,0,1-.25.2l-.42.49a1.15,1.15,0,0,1-.41.61.73.73,0,0,0-.3.49.87.87,0,0,1-.3.51,2.59,2.59,0,0,0-.5.69A3.13,3.13,0,0,1,73.13,97a.27.27,0,0,0-.07.08,3.92,3.92,0,0,1-.8,1,8.33,8.33,0,0,0-.68,1.17c.35.18.59.44.9.63a10.72,10.72,0,0,1,1.14.9c.16.13.35.23.52.36a2.92,2.92,0,0,0,.5.44,4.09,4.09,0,0,1,1,.77,2.5,2.5,0,0,0,.94.64c.14,0,.32.09.32.32,0,0,.08.11.14.15a4.79,4.79,0,0,1,.66.53,2.15,2.15,0,0,0,.71.47,1,1,0,0,1,.3.22l.16.12a1.92,1.92,0,0,0,.5.28,1.29,1.29,0,0,1,.52.33c0,.06.16,0,.26.07s.32-.22.39-.37c.28-.57.75-1,1-1.58A2,2,0,0,1,82,103a1.67,1.67,0,0,0,.26-.35,5.25,5.25,0,0,0,.51-.89,3,3,0,0,1,.58-.89.42.42,0,0,0,0-.1,1.44,1.44,0,0,1,.44-.73c.19-.21.32-.46.51-.66a4.15,4.15,0,0,0,.39-.52c.12-.17.27-.33.39-.51a2,2,0,0,0,.33-.58c.06-.25.32-.29.39-.51s.14-.2.14-.33a.4.4,0,0,1,.1-.18,1.66,1.66,0,0,0,.48-.69.37.37,0,0,1,.14-.22.73.73,0,0,0,.28-.32c.1-.16.26-.28.35-.44s.37-.3.42-.54.33-.37.36-.64c0-.09.07-.14.13-.21s.23-.37.43-.49c0-.28.3-.39.38-.63.39-.23.45-.71.77-1a1.86,1.86,0,0,1,.66-.81.64.64,0,0,0,.25-.27c0-.17,0-.35.26-.34,0-.11,0-.23.1-.28s.29-.37.53-.49.21-.31.32-.47.16-.27.25-.39l.55-.63c.07-.1.11-.27.2-.3s.24-.3.41-.4a.79.79,0,0,0,.33-.53c0-.06.1-.1.15-.15s.18-.15.2-.24c.06-.26.27-.41.4-.61s.14-.31,0-.5-.34-.21-.48-.34a2.54,2.54,0,0,0-1-.54,3.48,3.48,0,0,1-.38-.2A.44.44,0,0,0,92.3,84a.56.56,0,0,1-.5-.42.22.22,0,0,0,0,.08s.05,0,.07,0,0,0,0,0h-.1a4.05,4.05,0,0,0-1-.52l.09,0s0,0,0,0l-.09.11-.11-.3c-.29,0-.37-.07-.5-.23s-.07-.15-.17-.19c-.36-.13-.61-.44-1-.55a.76.76,0,0,1-.25-.2,4.19,4.19,0,0,0-.26-.33c-.1-.08-.26-.1-.35-.19a6.38,6.38,0,0,1-.9-.9h0s0,0,0,0ZM55.52,69.62a2.33,2.33,0,0,0-.71-.59.63.63,0,0,0-.25-.09,1.47,1.47,0,0,0-.47,0c-.19.06-.1.29-.18.42s0,.31.09.48.55.43.57.82c0,0,.1.09.16.12A1.71,1.71,0,0,0,55,71C55.46,70.69,55.55,70.49,55.52,69.62ZM53.26,85.85l.05,0-.2-.16,0,0Zm14.66,12a1,1,0,0,0-.12-.16s0,0-.08,0a.07.07,0,0,0,0,0Zm-20-30.15v0l.08,0a.25.25,0,0,0,0-.07Zm4.6,1.36,0,0,0,0ZM81.6,76h.05l0,0Zm-9.49-7.59,0,0,0,.06h0ZM92.85,84.09v0h.05s0,0,0,0ZM77.64,72.91h-.06l0,0Zm.71.46,0,0,0,0,0,0S78.34,73.38,78.35,73.37Z"/><path class="cls-16" d="M71.93,67.05c.13-.06.18,0,.17.14h0L71.93,67Z"/><path class="cls-16" d="M37.58,57.8c-.07.06-.13,0-.16,0a.71.71,0,0,1,0-.14l.13,0A.59.59,0,0,0,37.58,57.8Z"/><path class="cls-16" d="M67.79,91.42c0-.22.07-.43-.14-.59a.29.29,0,0,1-.11-.18.65.65,0,0,0-.21-.42.4.4,0,0,1-.09-.2,1.83,1.83,0,0,0-.45-1,.23.23,0,0,1-.08-.14c.05-.25-.16-.38-.26-.56s-.19-.23,0-.36c0,0,0-.13-.06-.18a3.2,3.2,0,0,0-.27-.25c.08-.12,0-.18-.08-.24s-.13-.5-.44-.55l-.45-.53c-.15-.2-.31-.4-.45-.61a1.45,1.45,0,0,1-.11-.25,3.87,3.87,0,0,0-2.14-2,.6.6,0,0,0-.75.23.13.13,0,0,0,0,0l-.27.51c0,.17,0,.33,0,.49s0,.29,0,.43a1.09,1.09,0,0,0,.37.84,9.8,9.8,0,0,0,.9.92,1.27,1.27,0,0,0,.13.11c.38.19.38.18.56.46l-.12.28a.51.51,0,0,1-.54.34,1.5,1.5,0,0,1-.79-.32,6.53,6.53,0,0,0-.71-.59c-.13-.1,0-.24-.12-.32s-.24-.15-.27-.25a3.2,3.2,0,0,0-.17-.43,6.92,6.92,0,0,1-.3-.91c0-.1-.06-.25,0-.31a.69.69,0,0,0,.06-.7c.14-.36.28-.65.37-1a.89.89,0,0,1,.42-.54c.31-.17.65-.29,1-.48s.4,0,.55-.12a3.34,3.34,0,0,1,.44.17c.25.1.49.22.73.34a1.21,1.21,0,0,1,.74.63,1,1,0,0,0,.42.4.72.72,0,0,1,.36.51l0,0a.06.06,0,0,1,0,0l.05.06a2.46,2.46,0,0,0,.44.66,6,6,0,0,1,.46.66c.06.09.13.17.2.26s0,0,0,0,0,0,0,0l-.1,0a.56.56,0,0,0,0,.08c.1.13.32.06.4.23.15.33.44.57.53.94a5.63,5.63,0,0,0,.34.89c0,.1.2.16.26.27s0,.2.11.28.18.18.17.27.09.2.21.24a1.09,1.09,0,0,1,.13.11c0,.15,0,.3,0,.52.1-.13.19-.19.21-.26a3.64,3.64,0,0,1,.73-1.19c.07-.08.08-.24.16-.26.28-.11.45-.36.69-.52a.67.67,0,0,1,.51-.07,1.19,1.19,0,0,0,.42,0s.13,0,.15,0c.16.2.38.17.59.17s.35.22.54.35c-.19.12-.3.27-.16.48-.08.14-.31.1-.33.32s-.14.18-.33.16a1.83,1.83,0,0,0-.9,0s-.11,0-.13,0-.26.16-.4.23-.43.13-.4.42c-.19.18-.18.46-.34.66a.32.32,0,0,0-.07.2c.06.24-.09.47,0,.69.08.45-.18.83-.14,1.29l-.38.25c0,.06-.05.16-.08.28l-.64-.18a5.58,5.58,0,0,1-.38-1.22l.06,0,0,0A.17.17,0,0,1,67.79,91.42Zm.48-2.27.09,0,0-.06-.07.06S68.27,89.14,68.27,89.15Zm-6.43-3s0,0,0,0,0,0,0,0v-.06Z"/><path class="cls-16" d="M66.19,82.4c0-.06.1-.1.1-.13a.2.2,0,0,0-.06-.14c-.28-.16-.33-.49-.55-.69a.75.75,0,0,1-.22-.59.8.8,0,0,0-.06-.3,1.44,1.44,0,0,1,.13-.93c0-.18.31-.08.37-.27a.6.6,0,0,1,.3-.36c.13-.07.24-.16.36-.24a1.75,1.75,0,0,1,1.31-.11,1,1,0,0,1,.53.22,1.34,1.34,0,0,0,.51.17l.45.16a.2.2,0,0,1,.16.2c0,.07,0,.14.13.13s.32.12.45.24.28.22.42.34.17.1.2.17c.11.31.4.43.62.63a4.65,4.65,0,0,1,1.06,1.19,5.13,5.13,0,0,0,.44.6c.18.23.22.53.43.74s0,.25,0,.36a2.5,2.5,0,0,1-.26.74,3.79,3.79,0,0,1-.57.64l-.09,0c-.17.11-.24.41-.53.24a1,1,0,0,1-.57,0c-.37-.06-.71-.22-1.09-.26a1,1,0,0,1-.68-.39,1.06,1.06,0,0,0-.53-.33,1.42,1.42,0,0,1-.7-.38c-.1-.11-.15-.29-.26-.39s-.28-.08-.4-.15a8.25,8.25,0,0,1-.84-.57A6.51,6.51,0,0,1,66.19,82.4Zm.23-2.3c.11.09.23.18.33.28a.5.5,0,0,1,.13.22c.12.33.28.64.43,1a1.75,1.75,0,0,0,.82.77c.25.14.53.2.71.45.19,0,.25.27.46.18a1.8,1.8,0,0,0,.43.31,1.74,1.74,0,0,1,.74.47.25.25,0,0,0,.24.07c.13-.07.23-.08.33,0s.3.1.46.11.28,0,.41,0,0-.27,0-.4a1.2,1.2,0,0,0-.08-.42c-.15-.34-.32-.68-.49-1-.12,0-.28.07-.23-.16,0-.08,0-.11-.12-.16a4.8,4.8,0,0,1-.87-.69,7.71,7.71,0,0,0-1.26-1,1.29,1.29,0,0,0-.46-.27,1,1,0,0,1-.56-.35,2.31,2.31,0,0,1-1,0Z"/><path class="cls-16" d="M74.74,76.5l.27.11A.85.85,0,0,1,75,77a.94.94,0,0,0,.37,1.23l.35.26.84.44c.31-.35.7-.63.72-1.16-.09-.07-.16-.15-.25-.21a12.1,12.1,0,0,1-1.77-1.42.5.5,0,0,1,0-.8,2.9,2.9,0,0,1,.55-.43.26.26,0,0,1,.3,0,.2.2,0,0,1,.06.29l-.44.46a1.59,1.59,0,0,1,.27.17l.61.52a4.31,4.31,0,0,0,1.2.74,2.19,2.19,0,0,0,.53-.67.4.4,0,0,1,.46-.24,1.32,1.32,0,0,1-.25,1.32.64.64,0,0,0,.06.12,11.4,11.4,0,0,1,1.8,1.37c.23.17.44.37.67.55a.51.51,0,0,1,.12.71l-.31.06a3.74,3.74,0,0,1-.4-.32c-.56-.56-1.25-1-1.81-1.52a1,1,0,0,0-.38-.21.26.26,0,0,0-.24.06c-.26.3-.51.61-.75.92,0,0,0,.1,0,.14,0,.21.22.29.37.38a10.22,10.22,0,0,1,1.33.93c.26.22.51.44.78.64a.37.37,0,0,1,.18.32.43.43,0,0,1-.2.41.35.35,0,0,1-.4-.07c-.18-.13-.35-.26-.51-.4a5.49,5.49,0,0,0-1.37-1c-.24-.1-.4-.35-.68-.42-.22.11-.31.34-.49.49.11.19.2.34.28.5a1.36,1.36,0,0,1-.18,1.47.73.73,0,0,1-.56.28c-.27,0-.54,0-.8-.08a.74.74,0,0,1-.27-.16,2.88,2.88,0,0,1-.43-.33c-.31-.32-.68-.6-.73-1.09,0-.11-.07-.21-.08-.31a1.55,1.55,0,0,1,0-.43.73.73,0,0,1,.89-.64,2.28,2.28,0,0,1,.89.21,3.12,3.12,0,0,0,.44.17l.34-.66c-.15-.19-.27-.38-.55-.4-.12,0-.23-.15-.33-.24l-.72-.64a.56.56,0,0,1-.19-.44c0-.3.08-.6.13-.9A1.05,1.05,0,0,1,74.74,76.5ZM74,80.44c0,.18.06.32.06.45A1.58,1.58,0,0,0,74.68,82a.85.85,0,0,0,.85.24,2.43,2.43,0,0,1,.27,0,.33.33,0,0,0,.33-.29.63.63,0,0,0-.25-.67c-.15-.12-.33-.2-.41-.4,0,0-.08-.08-.12-.11A2.5,2.5,0,0,0,74,80.44Z"/><path class="cls-16" d="M77.87,99.17c.14.15.19.25.26.27a.93.93,0,0,1,.65.52,1.54,1.54,0,0,0,.36.4c.16.16.33.33.48.5a.68.68,0,0,1,.14.81.36.36,0,0,1-.4,0,5.19,5.19,0,0,1-1-.77c-.23-.24-.53-.41-.78-.63s-.48-.44-.74-.63a6.38,6.38,0,0,1-.94-.78.44.44,0,0,0-.2-.08c-.19-.06-.3-.16-.26-.39,0,0-.09-.11-.15-.19l.23-.43a1,1,0,0,1,.81,0,3.82,3.82,0,0,0,1.13.28,4.63,4.63,0,0,0,1.12,0,3.2,3.2,0,0,1,.75,0,2.76,2.76,0,0,0,.29,0,2.12,2.12,0,0,0-.73-.68,2.5,2.5,0,0,1-.69-.56.83.83,0,0,0-.35-.27c-.16-.08-.34-.13-.38-.35,0,0-.1-.08-.15-.11l-.37-.2-.24-.73.42-.51c.34-.15.56.11.81.3a.16.16,0,0,1,0,.09,4.4,4.4,0,0,0,1,1,2.35,2.35,0,0,1,.25.19,4.16,4.16,0,0,0,1,.73,8.83,8.83,0,0,1,1.11.82c.15.11.28.23.42.35a2.39,2.39,0,0,1,.23.22.73.73,0,0,1,.09,1,.64.64,0,0,1-.29.22,2.61,2.61,0,0,1-1.54,0c-.18,0-.35-.09-.53-.12a7.81,7.81,0,0,1-1.42-.3A1.66,1.66,0,0,0,77.87,99.17Zm2.71.28,0,0v0Z"/><path class="cls-16" d="M84.17,90.55a1.88,1.88,0,0,1-.43-.66.49.49,0,0,0-.18-.2c-.24-.13-.26-.37-.3-.59a.79.79,0,0,1,.18-.5c.19-.31.5-.23.77-.27a1.44,1.44,0,0,1,.41,0,4.3,4.3,0,0,1,.41.16.75.75,0,0,1,.09-.2c.06-.1.2-.14.18-.29a.45.45,0,0,0-.17-.27,5.78,5.78,0,0,1-.5-.49c-.13-.16,0-.41-.18-.59s0-.29.11-.43.28-.18.44-.07a2.06,2.06,0,0,1,.31.28,3.64,3.64,0,0,1,.81.94.5.5,0,0,0,.22.21,2.76,2.76,0,0,1,.79.73,3,3,0,0,0,.29.32.69.69,0,0,1,.28.5,1.35,1.35,0,0,1-.09.69.36.36,0,0,1-.15.15.76.76,0,0,1-.47.07,2.56,2.56,0,0,0-.83-.11,1.55,1.55,0,0,1-.36-.08l-.43-.08c-.11.2,0,.33.1.45a4.31,4.31,0,0,0,.44.59A1.33,1.33,0,0,1,86.35,92c0,.08-.13.23-.21.4s-.42.2-.65,0A5.89,5.89,0,0,1,84,91.88c-.06,0-.12-.11-.18-.11-.24,0-.28-.19-.34-.31-.4-.1-.77-.18-1.13-.28a1.59,1.59,0,0,1-.73-.65l.11-.21a1.5,1.5,0,0,1,.09-.18.92.92,0,0,1,.88.11c.22.16.54.09.74.29C83.66,90.44,83.89,90.67,84.17,90.55Z"/><path class="cls-16" d="M80.13,95.49a3.17,3.17,0,0,1-.56-1.76,1.93,1.93,0,0,1,0-.68,1.74,1.74,0,0,1,.26-.59.55.55,0,0,1,.43-.28,2,2,0,0,0,.71-.23c.18-.11.36,0,.52-.08.27.18.61.16.89.32a4.69,4.69,0,0,1,1.19,1,2,2,0,0,1,.14,2.64l-.09.13a1.16,1.16,0,0,1-1,.56,4.72,4.72,0,0,0-.64,0,.84.84,0,0,1-.36-.08l-.7-.27c-.07,0-.16-.07-.18-.12-.06-.24-.32-.28-.43-.46h0c0-.08,0-.16,0-.24l-.16.1Zm3-.76a1,1,0,0,0,0-.17c-.07-.37-.43-.57-.54-.92,0-.06-.1-.09-.15-.15s-.05-.11-.09-.12c-.25,0-.4-.23-.61-.31a1.38,1.38,0,0,0-1.09,0c0,.25,0,.49,0,.72a1.54,1.54,0,0,0,.14.57,2.35,2.35,0,0,0,1.12,1,.43.43,0,0,0,.46,0C82.61,95.05,82.87,94.9,83.12,94.73Z"/><path class="cls-16" d="M68,71.3c.12.06.18.07.21.11a3.55,3.55,0,0,1,.65,1,10.73,10.73,0,0,0,.45,1.19c.16.34.29.69.46,1,0,.11.13.21.19.32a1,1,0,0,1,.19.43,2.43,2.43,0,0,0,.18.56c.05.15.27.19.25.39s.15.25.2.37c.14.37.26.75.37,1.13a.57.57,0,0,1-.16.49.39.39,0,0,1-.53-.08,2.62,2.62,0,0,1-.36-.73c0-.25-.11-.51-.16-.77,0,0,0-.08,0-.09-.22-.12-.22-.36-.3-.55a2.07,2.07,0,0,1-.25-.81s-.06-.08-.09-.12-.12-.08-.11-.1c.08-.32-.18-.49-.28-.73s-.1-.23-.14-.35c-.16-.49-.36-1-.52-1.46A5.23,5.23,0,0,1,68,71.3Z"/><path class="cls-16" d="M68.38,75.05c0,.11.07.21.1.34s-.17.29-.24.46-.18.35-.41.38a.54.54,0,0,1-.77.09,1.07,1.07,0,0,0-.31-.06.7.7,0,0,1-.56-.45c-.09-.22-.18-.44-.25-.66a1.11,1.11,0,0,1,0-.26l0-.58a.43.43,0,0,1,.26-.39,1.31,1.31,0,0,1,1-.07l.26.1c.72.3.77.37.91,1.12Zm-1.57-.77a3.32,3.32,0,0,0,0,.47.67.67,0,0,0,.53.47.22.22,0,0,0,.25-.22.47.47,0,0,0,0-.26A.83.83,0,0,0,66.81,74.28Z"/><path class="cls-16" d="M71.5,75.78c-.16-.22-.47-.31-.59-.59a2.68,2.68,0,0,1-.21-.6,1.14,1.14,0,0,1,0-.58,2.88,2.88,0,0,1,.57-.92l.47,0a.64.64,0,0,1,.64.28,2.82,2.82,0,0,1,.65,1c0,.1.08.19,0,.29s0,.14,0,.2a.65.65,0,0,1-.21.71.72.72,0,0,1-.79.26A2.48,2.48,0,0,0,71.5,75.78Zm0-2.28c0,.1.08.17.07.24-.08.59-.08.63.19,1s.39.28.57,0a.78.78,0,0,0,.08-.4.75.75,0,0,0-.61-.73A1.3,1.3,0,0,1,71.5,73.5Zm.45-.33,0,0,0,0Z"/><path class="cls-16" d="M87.87,86.54c-.24-.17-.55-.23-.65-.54-.31,0-.34-.27-.42-.48a2.16,2.16,0,0,0-.61-.55A.54.54,0,0,1,86,84.9a6.06,6.06,0,0,1-.68-.76,5.2,5.2,0,0,0-.35-.47.28.28,0,0,1,.07-.38.65.65,0,0,1,.91.07s.14.07.17.12a2.71,2.71,0,0,0,.81.84A5.15,5.15,0,0,1,88,85.5a1.24,1.24,0,0,1,.17.27c.18.38.15.47-.19.71Z"/><path class="cls-16" d="M89.8,86.31a.77.77,0,0,1,0,.93c-.07.11-.13.21-.29.21s-.11.07-.17.11c-.24.14-.39.07-.4-.19a1.55,1.55,0,0,1,.19-.78A.51.51,0,0,1,89.8,86.31Z"/><path class="cls-16" d="M93.25,84.49s0,.06,0,.08l-.08,0s0,0,0,0Z"/><path class="cls-16" d="M83.65,77.71l.07.08,0-.08Z"/><path class="cls-16" d="M80.3,95.63c-.12,0-.17,0-.17-.14h0l.18.14Z"/><path class="cls-16" d="M68.38,75.07l.09,0v0l-.09-.07Z"/><path class="cls-16" d="M52.86,71.56l-.15.18C52.63,71.54,52.63,71.54,52.86,71.56Z"/><path class="cls-16" d="M39.73,58.63l-.18-.16C39.67,58.46,39.75,58.48,39.73,58.63Z"/><path class="cls-16" d="M39.12,54.8l.05.06a.06.06,0,0,0,0,0h0Z"/><polygon class="cls-16" points="71.2 83.68 71.25 83.66 71.23 83.7 71.2 83.68"/><text class="cls-17" transform="translate(96.5 36.78)">Congratulations</text><text class="cls-17" transform="translate(97.99 72.72)">Discount Is Done</text><text class="cls-17" transform="translate(113.71 54.8)">20% Of</text></g></g></svg>