<svg xmlns="http://www.w3.org/2000/svg" xmlns:xlink="http://www.w3.org/1999/xlink" viewBox="0 0 255.12 121.89"><defs><style>.cls-1{isolation:isolate;}.cls-2{fill:#fff;}.cls-3{fill:#fcca2d;}.cls-4{fill:none;stroke:#232121;stroke-linecap:round;stroke-linejoin:round;stroke-width:0.67px;}.cls-5,.cls-6{fill:#dbe3fb;}.cls-6{stroke:#353535;stroke-miterlimit:10;}.cls-7{font-size:12px;font-family:AdobeArabic-Regular, Adobe Arabic;}.cls-8{font-size:8.5px;font-family:ArialMT, Arial;}.cls-9{fill:url(#linear-gradient);}.cls-10{fill:url(#linear-gradient-2);}.cls-11{fill:url(#linear-gradient-3);}.cls-12{fill:url(#radial-gradient);}.cls-13{fill:url(#linear-gradient-4);}.cls-14{fill:url(#linear-gradient-5);}.cls-15{mix-blend-mode:screen;fill:url(#linear-gradient-6);}</style><linearGradient id="linear-gradient" x1="174.06" y1="88.68" x2="158.98" y2="109.33" gradientUnits="userSpaceOnUse"><stop offset="0" stop-color="#666"/><stop offset="0.4"/></linearGradient><linearGradient id="linear-gradient-2" x1="164.58" y1="109.33" x2="180.21" y2="108.11" xlink:href="#linear-gradient"/><linearGradient id="linear-gradient-3" x1="154.52" y1="103.48" x2="175.04" y2="106.6" xlink:href="#linear-gradient"/><radialGradient id="radial-gradient" cx="146.59" cy="90.43" r="31.12" gradientUnits="userSpaceOnUse"><stop offset="0" stop-color="#fff"/><stop offset="0.21" stop-color="#fbfbfb"/><stop offset="0.43" stop-color="#efefef"/><stop offset="0.65" stop-color="#dbdbdb"/><stop offset="0.86" stop-color="#bfbfbf"/><stop offset="1" stop-color="#a9a9a9"/></radialGradient><linearGradient id="linear-gradient-4" x1="138.95" y1="84.68" x2="185.35" y2="109.96" xlink:href="#linear-gradient"/><linearGradient id="linear-gradient-5" x1="138.7" y1="77.56" x2="160.44" y2="106.78" xlink:href="#linear-gradient"/><linearGradient id="linear-gradient-6" x1="163.71" y1="92.24" x2="150.66" y2="76.61" gradientUnits="userSpaceOnUse"><stop offset="0" stop-color="#666"/><stop offset="1"/></linearGradient></defs><g class="cls-1"><g id="Layer_1" data-name="Layer 1"><rect class="cls-2" x="62.74" y="14.85" width="124.74" height="102.3" rx="3.41"/><path class="cls-3" d="M184.07,14.85H66.15a3.4,3.4,0,0,0-3.41,3.41v4.87H187.48V18.26A3.4,3.4,0,0,0,184.07,14.85Z"/><path class="cls-4" d="M184.07,14.85H66.15a3.4,3.4,0,0,0-3.41,3.41v4.87H187.48V18.26A3.4,3.4,0,0,0,184.07,14.85Z"/><rect class="cls-4" x="62.74" y="14.85" width="124.74" height="102.3" rx="3.41"/><path class="cls-2" d="M166.19,20.56h-1.87a.32.32,0,0,1-.32-.32V18.37a.32.32,0,0,1,.32-.32h1.87a.32.32,0,0,1,.32.32v1.87A.32.32,0,0,1,166.19,20.56Zm-1.56-.63h1.24V18.69h-1.24Z"/><path class="cls-2" d="M174.28,19.62h-2.64a.32.32,0,1,1,0-.63h2.64a.32.32,0,0,1,0,.63Z"/><path class="cls-2" d="M181.7,20.56a.28.28,0,0,1-.22-.1l-1.87-1.86a.32.32,0,0,1,.45-.45L181.93,20a.31.31,0,0,1,0,.44A.3.3,0,0,1,181.7,20.56Z"/><path class="cls-2" d="M179.84,20.56a.32.32,0,0,1-.23-.1.31.31,0,0,1,0-.44l1.87-1.87a.32.32,0,0,1,.45.45l-1.87,1.86A.28.28,0,0,1,179.84,20.56Z"/><line class="cls-4" x1="177.01" y1="15.21" x2="177.01" y2="22.79"/><line class="cls-4" x1="169.08" y1="15.21" x2="169.08" y2="22.79"/><line class="cls-4" x1="161.14" y1="15.21" x2="161.14" y2="22.79"/><path class="cls-5" d="M178.87,103.32H73.16a2.49,2.49,0,0,1-2.48-2.49h0a2.48,2.48,0,0,1,2.48-2.49H178.87a2.49,2.49,0,0,1,2.49,2.49h0A2.5,2.5,0,0,1,178.87,103.32Z"/><path class="cls-5" d="M178.87,113.27H73.16a2.48,2.48,0,0,1-2.48-2.49h0a2.49,2.49,0,0,1,2.48-2.49H178.87a2.5,2.5,0,0,1,2.49,2.49h0A2.49,2.49,0,0,1,178.87,113.27Z"/><path class="cls-5" d="M178.87,84.64H73.16a2.48,2.48,0,0,1-2.48-2.49h0a2.48,2.48,0,0,1,2.48-2.48H178.87a2.49,2.49,0,0,1,2.49,2.48h0A2.49,2.49,0,0,1,178.87,84.64Z"/><path class="cls-5" d="M178.87,94.6H73.16a2.48,2.48,0,0,1-2.48-2.49h0a2.49,2.49,0,0,1,2.48-2.49H178.87a2.5,2.5,0,0,1,2.49,2.49h0A2.49,2.49,0,0,1,178.87,94.6Z"/><path class="cls-5" d="M178.87,66H73.16a2.48,2.48,0,0,1-2.48-2.49h0A2.49,2.49,0,0,1,73.16,61H178.87a2.5,2.5,0,0,1,2.49,2.49h0A2.49,2.49,0,0,1,178.87,66Z"/><path class="cls-5" d="M178.87,75.93H73.16a2.49,2.49,0,0,1-2.48-2.49h0A2.48,2.48,0,0,1,73.16,71H178.87a2.49,2.49,0,0,1,2.49,2.49h0A2.5,2.5,0,0,1,178.87,75.93Z"/><rect class="cls-6" x="77.79" y="45.71" width="96.45" height="11.43"/><text class="cls-7" transform="translate(104.26 36.78)">Copy Code</text><text class="cls-8" transform="translate(99.4 54.99)">ABCabc123</text><polygon class="cls-9" points="176.56 92.39 174.07 95.42 162.66 97.16 165.15 94.12 176.56 92.39"/><polygon class="cls-10" points="173.48 105.73 171 108.77 166.08 112.12 168.56 109.08 173.48 105.73"/><polygon class="cls-11" points="168.56 109.08 166.08 112.12 157.75 100.51 160.23 97.47 168.56 109.08"/><polygon class="cls-12" points="149.55 77.5 173.84 91.85 163.51 93.42 172.16 105.47 168.76 107.78 160.11 95.74 155.05 104.65 149.55 77.5"/><path class="cls-13" d="M176.55,92.39l-11.4,1.73,8.33,11.61-4.92,3.35-8.33-11.61-5.59,9.84-6.42-31.66Zm-4.39,13.08-8.65-12,10.33-1.57L149.55,77.5l5.5,27.15,5.06-8.91,8.65,12,3.4-2.31"/><polygon class="cls-14" points="154.64 107.31 152.16 110.35 145.74 78.69 148.22 75.65 154.64 107.31"/><path class="cls-15" d="M152.31,91.11a51.6,51.6,0,0,1,17.31,1.38l4.22-.64L149.55,77.5Z"/></g></g></svg>